  0
SECTION
  2
HEADER
  9
$ACADVER
  1
AC1014
  9
$HANDSEED
  5
FFFF
  9
$MEASUREMENT
 70
     1
  0
ENDSEC
  0
SECTION
  2
TABLES
  0
TABLE
  2
VPORT
  5
8
330
0
100
AcDbSymbolTable
 70
     4
  0
VPORT
  5
2E
330
8
100
AcDbSymbolTableRecord
100
AcDbViewportTableRecord
  2
*ACTIVE
 70
     0
 10
0.0
 20
0.0
 11
1.0
 21
1.0
 12
210.0
 22
148.5
 13
0.0
 23
0.0
 14
10.0
 24
10.0
 15
10.0
 25
10.0
 16
0.0
 26
0.0
 36
1.0
 17
0.0
 27
0.0
 37
0.0
 40
341.0
 41
1.24
 42
50.0
 43
0.0
 44
0.0
 50
0.0
 51
0.0
 71
     0
 72
   100
 73
     1
 74
     3
 75
     0
 76
     0
 77
     0
 78
     0
  0
ENDTAB
  0
TABLE
  2
LTYPE
  5
5
330
0
100
AcDbSymbolTable
 70
     1
  0
LTYPE
  5
14
330
5
100
AcDbSymbolTableRecord
100
AcDbLinetypeTableRecord
  2
BYBLOCK
 70
     0
  3

 72
    65
 73
     0
 40
0.0
  0
LTYPE
  5
15
330
5
100
AcDbSymbolTableRecord
100
AcDbLinetypeTableRecord
  2
BYLAYER
 70
     0
  3

 72
    65
 73
     0
 40
0.0
  0
LTYPE
  5
16
330
5
100
AcDbSymbolTableRecord
100
AcDbLinetypeTableRecord
  2
CONTINUOUS
 70
     0
  3
Solid line
 72
    65
 73
     0
 40
0.0
  0
ENDTAB
  0
TABLE
  2
LAYER
  5
2
100
AcDbSymbolTable
 70
2
  0
LAYER
  5
50
100
AcDbSymbolTableRecord
100
AcDbLayerTableRecord
  2
0
 70
0
  6
CONTINUOUS
  0
LAYER
  5
51
100
AcDbSymbolTableRecord
100
AcDbLayerTableRecord
  2
Layer_1
 70
0
  6
CONTINUOUS
  0
ENDTAB
  0
TABLE
  2
STYLE
  5
3
330
0
100
AcDbSymbolTable
 70
     1
  0
STYLE
  5
11
330
3
100
AcDbSymbolTableRecord
100
AcDbTextStyleTableRecord
  2
STANDARD
 70
     0
 40
0.0
 41
1.0
 50
0.0
 71
     0
 42
2.5
  3
txt
  4

  0
ENDTAB
  0
TABLE
  2
VIEW
  5
6
330
0
100
AcDbSymbolTable
 70
     0
  0
ENDTAB
  0
TABLE
  2
UCS
  5
7
330
0
100
AcDbSymbolTable
 70
     0
  0
ENDTAB
  0
TABLE
  2
APPID
  5
9
330
0
100
AcDbSymbolTable
 70
     2
  0
APPID
  5
12
330
9
100
AcDbSymbolTableRecord
100
AcDbRegAppTableRecord
  2
ACAD
 70
     0
  0
ENDTAB
  0
TABLE
  2
DIMSTYLE
  5
A
330
0
100
AcDbSymbolTable
 70
     1
  0
DIMSTYLE
105
27
330
A
100
AcDbSymbolTableRecord
100
AcDbDimStyleTableRecord
  2
ISO-25
 70
     0
  3

  4

  5

  6

  7

 40
1.0
 41
2.5
 42
0.625
 43
3.75
 44
1.25
 45
0.0
 46
0.0
 47
0.0
 48
0.0
140
2.5
141
2.5
142
0.0
143
0.03937007874016
144
1.0
145
0.0
146
1.0
147
0.625
 71
     0
 72
     0
 73
     0
 74
     0
 75
     0
 76
     0
 77
     1
 78
     8
170
     0
171
     3
172
     1
173
     0
174
     0
175
     0
176
     0
177
     0
178
     0
270
     2
271
     2
272
     2
273
     2
274
     3
340
11
275
     0
280
     0
281
     0
282
     0
283
     0
284
     8
285
     0
286
     0
287
     3
288
     0
  0
ENDTAB
  0
TABLE
  2
BLOCK_RECORD
  5
1
330
0
100
AcDbSymbolTable
 70
     1
  0
BLOCK_RECORD
  5
1F
330
1
100
AcDbSymbolTableRecord
100
AcDbBlockTableRecord
  2
*MODEL_SPACE
  0
BLOCK_RECORD
  5
1B
330
1
100
AcDbSymbolTableRecord
100
AcDbBlockTableRecord
  2
*PAPER_SPACE
  0
ENDTAB
  0
ENDSEC
  0
SECTION
  2
BLOCKS
  0
BLOCK
  5
20
330
1F
100
AcDbEntity
  8
0
100
AcDbBlockBegin
  2
*MODEL_SPACE
 70
     0
 10
0.0
 20
0.0
 30
0.0
  3
*MODEL_SPACE
  1

  0
ENDBLK
  5
21
330
1F
100
AcDbEntity
  8
0
100
AcDbBlockEnd
  0
BLOCK
  5
1C
330
1B
100
AcDbEntity
 67
     1
  8
0
100
AcDbBlockBegin
  2
*PAPER_SPACE
  1

  0
ENDBLK
  5
1D
330
1B
100
AcDbEntity
 67
     1
  8
0
100
AcDbBlockEnd
  0
ENDSEC
  0
SECTION
  2
ENTITIES
  0
LINE
  5
100
100
AcDbEntity
  8
Layer_1
 62
7
100
AcDbLine
 10
67.142421
 20
168.333849
 30
0.0
 11
8.149175
 21
160.334595
 31
0.0
  0
LINE
  5
101
100
AcDbEntity
  8
Layer_1
 62
7
100
AcDbLine
 10
8.149175
 20
160.334595
 30
0.0
 11
0.141111
 21
152.335341
 31
0.0
  0
LINE
  5
102
100
AcDbEntity
  8
Layer_1
 62
7
100
AcDbLine
 10
0.141111
 20
152.335341
 30
0.0
 11
0.141111
 21
63.338345
 31
0.0
  0
LINE
  5
103
100
AcDbEntity
  8
Layer_1
 62
7
100
AcDbLine
 10
0.141111
 20
63.338345
 30
0.0
 11
8.149175
 21
55.339125
 31
0.0
  0
LINE
  5
104
100
AcDbEntity
  8
Layer_1
 62
7
100
AcDbLine
 10
8.149175
 20
55.339125
 30
0.0
 11
67.142421
 21
55.339125
 31
0.0
  0
LINE
  5
105
100
AcDbEntity
  8
Layer_1
 62
7
100
AcDbLine
 10
67.142421
 20
55.339125
 30
0.0
 11
95.302901
 21
19.382245
 31
0.0
  0
LINE
  5
106
100
AcDbEntity
  8
Layer_1
 62
7
100
AcDbLine
 10
95.302901
 20
19.382245
 30
0.0
 11
148.149001
 21
0.147035
 31
0.0
  0
LINE
  5
107
100
AcDbEntity
  8
Layer_1
 62
7
100
AcDbLine
 10
148.149001
 20
0.147035
 30
0.0
 11
158.256111
 21
2.537105
 31
0.0
  0
LINE
  5
108
100
AcDbEntity
  8
Layer_1
 62
7
100
AcDbLine
 10
158.256111
 20
2.537105
 30
0.0
 11
175.383441
 21
49.606475
 31
0.0
  0
LINE
  5
109
100
AcDbEntity
  8
Layer_1
 62
7
100
AcDbLine
 10
175.383441
 20
49.606475
 30
0.0
 11
177.473671
 21
55.339125
 31
0.0
  0
LINE
  5
10a
100
AcDbEntity
  8
Layer_1
 62
7
100
AcDbLine
 10
177.473671
 20
55.339125
 30
0.0
 11
174.616171
 21
65.437395
 31
0.0
  0
LINE
  5
10b
100
AcDbEntity
  8
Layer_1
 62
7
100
AcDbLine
 10
174.616171
 20
65.437395
 30
0.0
 11
156.148251
 21
73.224955
 31
0.0
  0
LINE
  5
10c
100
AcDbEntity
  8
Layer_1
 62
7
100
AcDbLine
 10
156.148251
 20
73.224955
 30
0.0
 11
156.148251
 21
115.179065
 31
0.0
  0
LINE
  5
10d
100
AcDbEntity
  8
Layer_1
 62
7
100
AcDbLine
 10
156.148251
 20
115.179065
 30
0.0
 11
164.147511
 21
123.134185
 31
0.0
  0
LINE
  5
10e
100
AcDbEntity
  8
Layer_1
 62
7
100
AcDbLine
 10
164.147511
 20
123.134185
 30
0.0
 11
164.147511
 21
160.334595
 31
0.0
  0
LINE
  5
10f
100
AcDbEntity
  8
Layer_1
 62
7
100
AcDbLine
 10
164.147511
 20
160.334595
 30
0.0
 11
148.149001
 21
160.334595
 31
0.0
  0
LINE
  5
110
100
AcDbEntity
  8
Layer_1
 62
7
100
AcDbLine
 10
148.149001
 20
160.334595
 30
0.0
 11
141.146411
 21
168.333849
 31
0.0
  0
LINE
  5
111
100
AcDbEntity
  8
Layer_1
 62
7
100
AcDbLine
 10
141.146411
 20
168.333849
 30
0.0
 11
67.142421
 21
168.333849
 31
0.0
  0
SPLINE
  5
112
100
AcDbEntity
  8
Layer_1
 62
7
100
AcDbSpline
 70
8
 71
3
 72
8
 73
4
 74
0
 40
0
 40
0
 40
0
 40
0
 40
1
 40
1
 40
1
 40
1
 10
71.657981
 20
165.661557
 30
0.0
 10
72.728591
 20
165.661557
 30
0.0
 10
73.598251
 20
164.791872
 30
0.0
 10
73.598251
 20
163.721262
 30
0.0
  0
SPLINE
  5
113
100
AcDbEntity
  8
Layer_1
 62
7
100
AcDbSpline
 70
8
 71
3
 72
8
 73
4
 74
0
 40
0
 40
0
 40
0
 40
0
 40
1
 40
1
 40
1
 40
1
 10
73.598251
 20
163.721262
 30
0.0
 10
73.598251
 20
162.650652
 30
0.0
 10
72.728591
 20
161.789856
 30
0.0
 10
71.657981
 20
161.789803
 30
0.0
  0
SPLINE
  5
114
100
AcDbEntity
  8
Layer_1
 62
7
100
AcDbSpline
 70
8
 71
3
 72
8
 73
4
 74
0
 40
0
 40
0
 40
0
 40
0
 40
1
 40
1
 40
1
 40
1
 10
71.657981
 20
161.789803
 30
0.0
 10
70.587371
 20
161.789803
 30
0.0
 10
69.726531
 20
162.650652
 30
0.0
 10
69.726501
 20
163.721262
 30
0.0
  0
SPLINE
  5
115
100
AcDbEntity
  8
Layer_1
 62
7
100
AcDbSpline
 70
8
 71
3
 72
8
 73
4
 74
0
 40
0
 40
0
 40
0
 40
0
 40
1
 40
1
 40
1
 40
1
 10
69.726501
 20
163.721262
 30
0.0
 10
69.726501
 20
164.791872
 30
0.0
 10
70.587371
 20
165.661557
 30
0.0
 10
71.657981
 20
165.661557
 30
0.0
  0
LINE
  5
116
100
AcDbEntity
  8
Layer_1
 62
7
100
AcDbLine
 10
71.657981
 20
165.661557
 30
0.0
 11
71.657981
 21
165.661557
 31
0.0
  0
SPLINE
  5
117
100
AcDbEntity
  8
Layer_1
 62
7
100
AcDbSpline
 70
8
 71
3
 72
8
 73
4
 74
0
 40
0
 40
0
 40
0
 40
0
 40
1
 40
1
 40
1
 40
1
 10
136.630841
 20
165.661557
 30
0.0
 10
137.701421
 20
165.661557
 30
0.0
 10
138.571031
 20
164.791872
 30
0.0
 10
138.571111
 20
163.721262
 30
0.0
  0
SPLINE
  5
118
100
AcDbEntity
  8
Layer_1
 62
7
100
AcDbSpline
 70
8
 71
3
 72
8
 73
4
 74
0
 40
0
 40
0
 40
0
 40
0
 40
1
 40
1
 40
1
 40
1
 10
138.571111
 20
163.721262
 30
0.0
 10
138.571111
 20
162.650652
 30
0.0
 10
137.701421
 20
161.789856
 30
0.0
 10
136.630841
 20
161.789803
 30
0.0
  0
SPLINE
  5
119
100
AcDbEntity
  8
Layer_1
 62
7
100
AcDbSpline
 70
8
 71
3
 72
8
 73
4
 74
0
 40
0
 40
0
 40
0
 40
0
 40
1
 40
1
 40
1
 40
1
 10
136.630841
 20
161.789803
 30
0.0
 10
135.560201
 20
161.789803
 30
0.0
 10
134.690471
 20
162.650652
 30
0.0
 10
134.690571
 20
163.721262
 30
0.0
  0
SPLINE
  5
11a
100
AcDbEntity
  8
Layer_1
 62
7
100
AcDbSpline
 70
8
 71
3
 72
8
 73
4
 74
0
 40
0
 40
0
 40
0
 40
0
 40
1
 40
1
 40
1
 40
1
 10
134.690571
 20
163.721262
 30
0.0
 10
134.690571
 20
164.791872
 30
0.0
 10
135.560151
 20
165.661557
 30
0.0
 10
136.630841
 20
165.661557
 30
0.0
  0
LINE
  5
11b
100
AcDbEntity
  8
Layer_1
 62
7
100
AcDbLine
 10
136.630841
 20
165.661557
 30
0.0
 11
136.630841
 21
165.661557
 31
0.0
  0
LINE
  5
11c
100
AcDbEntity
  8
Layer_1
 62
7
100
AcDbLine
 10
88.908821
 20
160.334595
 30
0.0
 11
102.905281
 21
160.334595
 31
0.0
  0
LINE
  5
11d
100
AcDbEntity
  8
Layer_1
 62
7
100
AcDbLine
 10
102.905281
 20
160.334595
 30
0.0
 11
102.905281
 21
146.338137
 31
0.0
  0
LINE
  5
11e
100
AcDbEntity
  8
Layer_1
 62
7
100
AcDbLine
 10
102.905281
 20
146.338137
 30
0.0
 11
88.908821
 21
146.338137
 31
0.0
  0
LINE
  5
11f
100
AcDbEntity
  8
Layer_1
 62
7
100
AcDbLine
 10
88.908821
 20
146.338137
 30
0.0
 11
88.908821
 21
160.334595
 31
0.0
  0
LINE
  5
120
100
AcDbEntity
  8
Layer_1
 62
7
100
AcDbLine
 10
69.911731
 20
158.332573
 30
0.0
 11
83.908171
 21
158.332573
 31
0.0
  0
LINE
  5
121
100
AcDbEntity
  8
Layer_1
 62
7
100
AcDbLine
 10
83.908171
 20
158.332573
 30
0.0
 11
83.908171
 21
144.336141
 31
0.0
  0
LINE
  5
122
100
AcDbEntity
  8
Layer_1
 62
7
100
AcDbLine
 10
83.908171
 20
144.336141
 30
0.0
 11
69.911731
 21
144.336141
 31
0.0
  0
LINE
  5
123
100
AcDbEntity
  8
Layer_1
 62
7
100
AcDbLine
 10
69.911731
 20
144.336141
 30
0.0
 11
69.911731
 21
158.332573
 31
0.0
  0
LINE
  5
124
100
AcDbEntity
  8
Layer_1
 62
7
100
AcDbLine
 10
107.905901
 20
158.332573
 30
0.0
 11
121.911171
 21
158.332573
 31
0.0
  0
LINE
  5
125
100
AcDbEntity
  8
Layer_1
 62
7
100
AcDbLine
 10
121.911171
 20
158.332573
 30
0.0
 11
121.911171
 21
144.336141
 31
0.0
  0
LINE
  5
126
100
AcDbEntity
  8
Layer_1
 62
7
100
AcDbLine
 10
121.911171
 20
144.336141
 30
0.0
 11
107.905901
 21
144.336141
 31
0.0
  0
LINE
  5
127
100
AcDbEntity
  8
Layer_1
 62
7
100
AcDbLine
 10
107.905901
 20
144.336141
 30
0.0
 11
107.905901
 21
158.332573
 31
0.0
  0
LINE
  5
128
100
AcDbEntity
  8
Layer_1
 62
7
100
AcDbLine
 10
126.911771
 20
155.836679
 30
0.0
 11
140.908251
 21
155.836679
 31
0.0
  0
LINE
  5
129
100
AcDbEntity
  8
Layer_1
 62
7
100
AcDbLine
 10
140.908251
 20
155.836679
 30
0.0
 11
140.908251
 21
141.831410
 31
0.0
  0
LINE
  5
12a
100
AcDbEntity
  8
Layer_1
 62
7
100
AcDbLine
 10
140.908251
 20
141.831410
 30
0.0
 11
126.911771
 21
141.831410
 31
0.0
  0
LINE
  5
12b
100
AcDbEntity
  8
Layer_1
 62
7
100
AcDbLine
 10
126.911771
 20
141.831410
 30
0.0
 11
126.911771
 21
155.836679
 31
0.0
  0
LINE
  5
12c
100
AcDbEntity
  8
Layer_1
 62
7
100
AcDbLine
 10
12.911675
 20
153.534804
 30
0.0
 11
26.908106
 21
153.534804
 31
0.0
  0
LINE
  5
12d
100
AcDbEntity
  8
Layer_1
 62
7
100
AcDbLine
 10
26.908106
 20
153.534804
 30
0.0
 11
26.908106
 21
139.538346
 31
0.0
  0
LINE
  5
12e
100
AcDbEntity
  8
Layer_1
 62
7
100
AcDbLine
 10
26.908106
 20
139.538346
 30
0.0
 11
12.911675
 21
139.538346
 31
0.0
  0
LINE
  5
12f
100
AcDbEntity
  8
Layer_1
 62
7
100
AcDbLine
 10
12.911675
 20
139.538346
 30
0.0
 11
12.911675
 21
153.534804
 31
0.0
  0
LINE
  5
130
100
AcDbEntity
  8
Layer_1
 62
7
100
AcDbLine
 10
31.908731
 20
153.340811
 30
0.0
 11
45.905190
 21
153.340811
 31
0.0
  0
LINE
  5
131
100
AcDbEntity
  8
Layer_1
 62
7
100
AcDbLine
 10
45.905190
 20
153.340811
 30
0.0
 11
45.905190
 21
139.335516
 31
0.0
  0
LINE
  5
132
100
AcDbEntity
  8
Layer_1
 62
7
100
AcDbLine
 10
45.905190
 20
139.335516
 30
0.0
 11
31.908731
 21
139.335516
 31
0.0
  0
LINE
  5
133
100
AcDbEntity
  8
Layer_1
 62
7
100
AcDbLine
 10
31.908731
 20
139.335516
 30
0.0
 11
31.908731
 21
153.340811
 31
0.0
  0
LINE
  5
134
100
AcDbEntity
  8
Layer_1
 62
7
100
AcDbLine
 10
50.905841
 20
153.340811
 30
0.0
 11
64.911111
 21
153.340811
 31
0.0
  0
LINE
  5
135
100
AcDbEntity
  8
Layer_1
 62
7
100
AcDbLine
 10
64.911111
 20
153.340811
 30
0.0
 11
64.911111
 21
139.335516
 31
0.0
  0
LINE
  5
136
100
AcDbEntity
  8
Layer_1
 62
7
100
AcDbLine
 10
64.911111
 20
139.335516
 30
0.0
 11
50.905841
 21
139.335516
 31
0.0
  0
LINE
  5
137
100
AcDbEntity
  8
Layer_1
 62
7
100
AcDbLine
 10
50.905841
 20
139.335516
 30
0.0
 11
50.905841
 21
153.340811
 31
0.0
  0
SPLINE
  5
138
100
AcDbEntity
  8
Layer_1
 62
7
100
AcDbSpline
 70
8
 71
3
 72
8
 73
4
 74
0
 40
0
 40
0
 40
0
 40
0
 40
1
 40
1
 40
1
 40
1
 10
4.656675
 20
150.756679
 30
0.0
 10
5.727259
 20
150.756679
 30
0.0
 10
6.596944
 20
149.887020
 30
0.0
 10
6.596944
 20
148.816410
 30
0.0
  0
SPLINE
  5
139
100
AcDbEntity
  8
Layer_1
 62
7
100
AcDbSpline
 70
8
 71
3
 72
8
 73
4
 74
0
 40
0
 40
0
 40
0
 40
0
 40
1
 40
1
 40
1
 40
1
 10
6.596944
 20
148.816410
 30
0.0
 10
6.596944
 20
147.745800
 30
0.0
 10
5.727259
 20
146.884978
 30
0.0
 10
4.656675
 20
146.884978
 30
0.0
  0
SPLINE
  5
13a
100
AcDbEntity
  8
Layer_1
 62
7
100
AcDbSpline
 70
8
 71
3
 72
8
 73
4
 74
0
 40
0
 40
0
 40
0
 40
0
 40
1
 40
1
 40
1
 40
1
 10
4.656675
 20
146.884978
 30
0.0
 10
3.586039
 20
146.884978
 30
0.0
 10
2.725191
 20
147.745800
 30
0.0
 10
2.725191
 20
148.816410
 30
0.0
  0
SPLINE
  5
13b
100
AcDbEntity
  8
Layer_1
 62
7
100
AcDbSpline
 70
8
 71
3
 72
8
 73
4
 74
0
 40
0
 40
0
 40
0
 40
0
 40
1
 40
1
 40
1
 40
1
 10
2.725191
 20
148.816410
 30
0.0
 10
2.725191
 20
149.887020
 30
0.0
 10
3.586039
 20
150.756679
 30
0.0
 10
4.656675
 20
150.756679
 30
0.0
  0
LINE
  5
13c
100
AcDbEntity
  8
Layer_1
 62
7
100
AcDbLine
 10
4.656675
 20
150.756679
 30
0.0
 11
4.656675
 21
150.756679
 31
0.0
  0
LINE
  5
13d
100
AcDbEntity
  8
Layer_1
 62
7
100
AcDbLine
 10
88.908821
 20
141.337513
 30
0.0
 11
102.905281
 21
141.337513
 31
0.0
  0
LINE
  5
13e
100
AcDbEntity
  8
Layer_1
 62
7
100
AcDbLine
 10
102.905281
 20
141.337513
 30
0.0
 11
102.905281
 21
127.332245
 31
0.0
  0
LINE
  5
13f
100
AcDbEntity
  8
Layer_1
 62
7
100
AcDbLine
 10
102.905281
 20
127.332245
 30
0.0
 11
88.908821
 21
127.332245
 31
0.0
  0
LINE
  5
140
100
AcDbEntity
  8
Layer_1
 62
7
100
AcDbLine
 10
88.908821
 20
127.332245
 30
0.0
 11
88.908821
 21
141.337513
 31
0.0
  0
LINE
  5
141
100
AcDbEntity
  8
Layer_1
 62
7
100
AcDbLine
 10
69.911731
 20
139.335516
 30
0.0
 11
83.908171
 21
139.335516
 31
0.0
  0
LINE
  5
142
100
AcDbEntity
  8
Layer_1
 62
7
100
AcDbLine
 10
83.908171
 20
139.335516
 30
0.0
 11
83.908171
 21
125.339065
 31
0.0
  0
LINE
  5
143
100
AcDbEntity
  8
Layer_1
 62
7
100
AcDbLine
 10
83.908171
 20
125.339065
 30
0.0
 11
69.911731
 21
125.339065
 31
0.0
  0
LINE
  5
144
100
AcDbEntity
  8
Layer_1
 62
7
100
AcDbLine
 10
69.911731
 20
125.339065
 30
0.0
 11
69.911731
 21
139.335516
 31
0.0
  0
LINE
  5
145
100
AcDbEntity
  8
Layer_1
 62
7
100
AcDbLine
 10
107.905901
 20
139.335516
 30
0.0
 11
121.911171
 21
139.335516
 31
0.0
  0
LINE
  5
146
100
AcDbEntity
  8
Layer_1
 62
7
100
AcDbLine
 10
121.911171
 20
139.335516
 30
0.0
 11
121.911171
 21
125.339065
 31
0.0
  0
LINE
  5
147
100
AcDbEntity
  8
Layer_1
 62
7
100
AcDbLine
 10
121.911171
 20
125.339065
 30
0.0
 11
107.905901
 21
125.339065
 31
0.0
  0
LINE
  5
148
100
AcDbEntity
  8
Layer_1
 62
7
100
AcDbLine
 10
107.905901
 20
125.339065
 30
0.0
 11
107.905901
 21
139.335516
 31
0.0
  0
LINE
  5
149
100
AcDbEntity
  8
Layer_1
 62
7
100
AcDbLine
 10
126.911771
 20
136.839596
 30
0.0
 11
140.908251
 21
136.839596
 31
0.0
  0
LINE
  5
14a
100
AcDbEntity
  8
Layer_1
 62
7
100
AcDbLine
 10
140.908251
 20
136.839596
 30
0.0
 11
140.908251
 21
122.834335
 31
0.0
  0
LINE
  5
14b
100
AcDbEntity
  8
Layer_1
 62
7
100
AcDbLine
 10
140.908251
 20
122.834335
 30
0.0
 11
126.911771
 21
122.834335
 31
0.0
  0
LINE
  5
14c
100
AcDbEntity
  8
Layer_1
 62
7
100
AcDbLine
 10
126.911771
 20
122.834335
 30
0.0
 11
126.911771
 21
136.839596
 31
0.0
  0
LINE
  5
14d
100
AcDbEntity
  8
Layer_1
 62
7
100
AcDbLine
 10
10.530399
 20
134.484805
 30
0.0
 11
24.526857
 21
134.484805
 31
0.0
  0
LINE
  5
14e
100
AcDbEntity
  8
Layer_1
 62
7
100
AcDbLine
 10
24.526857
 20
134.484805
 30
0.0
 11
24.526857
 21
120.488355
 31
0.0
  0
LINE
  5
14f
100
AcDbEntity
  8
Layer_1
 62
7
100
AcDbLine
 10
24.526857
 20
120.488355
 30
0.0
 11
10.530399
 21
120.488355
 31
0.0
  0
LINE
  5
150
100
AcDbEntity
  8
Layer_1
 62
7
100
AcDbLine
 10
10.530399
 20
120.488355
 30
0.0
 11
10.530399
 21
134.484805
 31
0.0
  0
LINE
  5
151
100
AcDbEntity
  8
Layer_1
 62
7
100
AcDbLine
 10
31.908731
 20
134.334895
 30
0.0
 11
45.905190
 21
134.334895
 31
0.0
  0
LINE
  5
152
100
AcDbEntity
  8
Layer_1
 62
7
100
AcDbLine
 10
45.905190
 20
134.334895
 30
0.0
 11
45.905190
 21
120.338435
 31
0.0
  0
LINE
  5
153
100
AcDbEntity
  8
Layer_1
 62
7
100
AcDbLine
 10
45.905190
 20
120.338435
 30
0.0
 11
31.908731
 21
120.338435
 31
0.0
  0
LINE
  5
154
100
AcDbEntity
  8
Layer_1
 62
7
100
AcDbLine
 10
31.908731
 20
120.338435
 30
0.0
 11
31.908731
 21
134.334895
 31
0.0
  0
LINE
  5
155
100
AcDbEntity
  8
Layer_1
 62
7
100
AcDbLine
 10
50.905841
 20
134.334895
 30
0.0
 11
64.911111
 21
134.334895
 31
0.0
  0
LINE
  5
156
100
AcDbEntity
  8
Layer_1
 62
7
100
AcDbLine
 10
64.911111
 20
134.334895
 30
0.0
 11
64.911111
 21
120.338435
 31
0.0
  0
LINE
  5
157
100
AcDbEntity
  8
Layer_1
 62
7
100
AcDbLine
 10
64.911111
 20
120.338435
 30
0.0
 11
50.905841
 21
120.338435
 31
0.0
  0
LINE
  5
158
100
AcDbEntity
  8
Layer_1
 62
7
100
AcDbLine
 10
50.905841
 20
120.338435
 30
0.0
 11
50.905841
 21
134.334895
 31
0.0
  0
SPLINE
  5
159
100
AcDbEntity
  8
Layer_1
 62
7
100
AcDbSpline
 70
8
 71
3
 72
8
 73
4
 74
0
 40
0
 40
0
 40
0
 40
0
 40
1
 40
1
 40
1
 40
1
 10
159.631941
 20
130.313235
 30
0.0
 10
160.702531
 20
130.313235
 30
0.0
 10
161.572131
 20
129.443545
 30
0.0
 10
161.572241
 20
128.372935
 30
0.0
  0
SPLINE
  5
15a
100
AcDbEntity
  8
Layer_1
 62
7
100
AcDbSpline
 70
8
 71
3
 72
8
 73
4
 74
0
 40
0
 40
0
 40
0
 40
0
 40
1
 40
1
 40
1
 40
1
 10
161.572241
 20
128.372935
 30
0.0
 10
161.572241
 20
127.302325
 30
0.0
 10
160.702531
 20
126.441525
 30
0.0
 10
159.631941
 20
126.441475
 30
0.0
  0
SPLINE
  5
15b
100
AcDbEntity
  8
Layer_1
 62
7
100
AcDbSpline
 70
8
 71
3
 72
8
 73
4
 74
0
 40
0
 40
0
 40
0
 40
0
 40
1
 40
1
 40
1
 40
1
 10
159.631941
 20
126.441475
 30
0.0
 10
158.561311
 20
126.441475
 30
0.0
 10
157.691601
 20
127.302325
 30
0.0
 10
157.691671
 20
128.372935
 30
0.0
  0
SPLINE
  5
15c
100
AcDbEntity
  8
Layer_1
 62
7
100
AcDbSpline
 70
8
 71
3
 72
8
 73
4
 74
0
 40
0
 40
0
 40
0
 40
0
 40
1
 40
1
 40
1
 40
1
 10
157.691671
 20
128.372935
 30
0.0
 10
157.691671
 20
129.443545
 30
0.0
 10
158.561251
 20
130.313235
 30
0.0
 10
159.631941
 20
130.313235
 30
0.0
  0
LINE
  5
15d
100
AcDbEntity
  8
Layer_1
 62
7
100
AcDbLine
 10
159.631941
 20
130.313235
 30
0.0
 11
159.631941
 21
130.313235
 31
0.0
  0
LINE
  5
15e
100
AcDbEntity
  8
Layer_1
 62
7
100
AcDbLine
 10
88.908821
 20
122.331625
 30
0.0
 11
102.905281
 21
122.331625
 31
0.0
  0
LINE
  5
15f
100
AcDbEntity
  8
Layer_1
 62
7
100
AcDbLine
 10
102.905281
 20
122.331625
 30
0.0
 11
102.905281
 21
108.335165
 31
0.0
  0
LINE
  5
160
100
AcDbEntity
  8
Layer_1
 62
7
100
AcDbLine
 10
102.905281
 20
108.335165
 30
0.0
 11
88.908821
 21
108.335165
 31
0.0
  0
LINE
  5
161
100
AcDbEntity
  8
Layer_1
 62
7
100
AcDbLine
 10
88.908821
 20
108.335165
 30
0.0
 11
88.908821
 21
122.331625
 31
0.0
  0
LINE
  5
162
100
AcDbEntity
  8
Layer_1
 62
7
100
AcDbLine
 10
69.911731
 20
120.338435
 30
0.0
 11
83.908171
 21
120.338435
 31
0.0
  0
LINE
  5
163
100
AcDbEntity
  8
Layer_1
 62
7
100
AcDbLine
 10
83.908171
 20
120.338435
 30
0.0
 11
83.908171
 21
106.333145
 31
0.0
  0
LINE
  5
164
100
AcDbEntity
  8
Layer_1
 62
7
100
AcDbLine
 10
83.908171
 20
106.333145
 30
0.0
 11
69.911731
 21
106.333145
 31
0.0
  0
LINE
  5
165
100
AcDbEntity
  8
Layer_1
 62
7
100
AcDbLine
 10
69.911731
 20
106.333145
 30
0.0
 11
69.911731
 21
120.338435
 31
0.0
  0
LINE
  5
166
100
AcDbEntity
  8
Layer_1
 62
7
100
AcDbLine
 10
107.905901
 20
120.338435
 30
0.0
 11
121.911171
 21
120.338435
 31
0.0
  0
LINE
  5
167
100
AcDbEntity
  8
Layer_1
 62
7
100
AcDbLine
 10
121.911171
 20
120.338435
 30
0.0
 11
121.911171
 21
106.333145
 31
0.0
  0
LINE
  5
168
100
AcDbEntity
  8
Layer_1
 62
7
100
AcDbLine
 10
121.911171
 20
106.333145
 30
0.0
 11
107.905901
 21
106.333145
 31
0.0
  0
LINE
  5
169
100
AcDbEntity
  8
Layer_1
 62
7
100
AcDbLine
 10
107.905901
 20
106.333145
 30
0.0
 11
107.905901
 21
120.338435
 31
0.0
  0
LINE
  5
16a
100
AcDbEntity
  8
Layer_1
 62
7
100
AcDbLine
 10
126.911771
 20
117.833705
 30
0.0
 11
140.908251
 21
117.833705
 31
0.0
  0
LINE
  5
16b
100
AcDbEntity
  8
Layer_1
 62
7
100
AcDbLine
 10
140.908251
 20
117.833705
 30
0.0
 11
140.908251
 21
103.837245
 31
0.0
  0
LINE
  5
16c
100
AcDbEntity
  8
Layer_1
 62
7
100
AcDbLine
 10
140.908251
 20
103.837245
 30
0.0
 11
126.911771
 21
103.837245
 31
0.0
  0
LINE
  5
16d
100
AcDbEntity
  8
Layer_1
 62
7
100
AcDbLine
 10
126.911771
 20
103.837245
 30
0.0
 11
126.911771
 21
117.833705
 31
0.0
  0
LINE
  5
16e
100
AcDbEntity
  8
Layer_1
 62
7
100
AcDbLine
 10
10.530399
 20
115.434805
 30
0.0
 11
24.526857
 21
115.434805
 31
0.0
  0
LINE
  5
16f
100
AcDbEntity
  8
Layer_1
 62
7
100
AcDbLine
 10
24.526857
 20
115.434805
 30
0.0
 11
24.526857
 21
101.438345
 31
0.0
  0
LINE
  5
170
100
AcDbEntity
  8
Layer_1
 62
7
100
AcDbLine
 10
24.526857
 20
101.438345
 30
0.0
 11
10.530399
 21
101.438345
 31
0.0
  0
LINE
  5
171
100
AcDbEntity
  8
Layer_1
 62
7
100
AcDbLine
 10
10.530399
 20
101.438345
 30
0.0
 11
10.530399
 21
115.434805
 31
0.0
  0
LINE
  5
172
100
AcDbEntity
  8
Layer_1
 62
7
100
AcDbLine
 10
31.908731
 20
115.337805
 30
0.0
 11
45.905190
 21
115.337805
 31
0.0
  0
LINE
  5
173
100
AcDbEntity
  8
Layer_1
 62
7
100
AcDbLine
 10
45.905190
 20
115.337805
 30
0.0
 11
45.905190
 21
101.332515
 31
0.0
  0
LINE
  5
174
100
AcDbEntity
  8
Layer_1
 62
7
100
AcDbLine
 10
45.905190
 20
101.332515
 30
0.0
 11
31.908731
 21
101.332515
 31
0.0
  0
LINE
  5
175
100
AcDbEntity
  8
Layer_1
 62
7
100
AcDbLine
 10
31.908731
 20
101.332515
 30
0.0
 11
31.908731
 21
115.337805
 31
0.0
  0
LINE
  5
176
100
AcDbEntity
  8
Layer_1
 62
7
100
AcDbLine
 10
50.905841
 20
115.337805
 30
0.0
 11
64.911111
 21
115.337805
 31
0.0
  0
LINE
  5
177
100
AcDbEntity
  8
Layer_1
 62
7
100
AcDbLine
 10
64.911111
 20
115.337805
 30
0.0
 11
64.911111
 21
101.332515
 31
0.0
  0
LINE
  5
178
100
AcDbEntity
  8
Layer_1
 62
7
100
AcDbLine
 10
64.911111
 20
101.332515
 30
0.0
 11
50.905841
 21
101.332515
 31
0.0
  0
LINE
  5
179
100
AcDbEntity
  8
Layer_1
 62
7
100
AcDbLine
 10
50.905841
 20
101.332515
 30
0.0
 11
50.905841
 21
115.337805
 31
0.0
  0
SPLINE
  5
17a
100
AcDbEntity
  8
Layer_1
 62
7
100
AcDbSpline
 70
8
 71
3
 72
8
 73
4
 74
0
 40
0
 40
0
 40
0
 40
0
 40
1
 40
1
 40
1
 40
1
 10
4.656675
 20
111.421985
 30
0.0
 10
5.727259
 20
111.421985
 30
0.0
 10
6.596944
 20
110.552295
 30
0.0
 10
6.596944
 20
109.481685
 30
0.0
  0
SPLINE
  5
17b
100
AcDbEntity
  8
Layer_1
 62
7
100
AcDbSpline
 70
8
 71
3
 72
8
 73
4
 74
0
 40
0
 40
0
 40
0
 40
0
 40
1
 40
1
 40
1
 40
1
 10
6.596944
 20
109.481685
 30
0.0
 10
6.596944
 20
108.411075
 30
0.0
 10
5.727259
 20
107.541415
 30
0.0
 10
4.656675
 20
107.541415
 30
0.0
  0
SPLINE
  5
17c
100
AcDbEntity
  8
Layer_1
 62
7
100
AcDbSpline
 70
8
 71
3
 72
8
 73
4
 74
0
 40
0
 40
0
 40
0
 40
0
 40
1
 40
1
 40
1
 40
1
 10
4.656675
 20
107.541415
 30
0.0
 10
3.586039
 20
107.541415
 30
0.0
 10
2.725191
 20
108.411075
 30
0.0
 10
2.725191
 20
109.481685
 30
0.0
  0
SPLINE
  5
17d
100
AcDbEntity
  8
Layer_1
 62
7
100
AcDbSpline
 70
8
 71
3
 72
8
 73
4
 74
0
 40
0
 40
0
 40
0
 40
0
 40
1
 40
1
 40
1
 40
1
 10
2.725191
 20
109.481685
 30
0.0
 10
2.725191
 20
110.552295
 30
0.0
 10
3.586039
 20
111.421985
 30
0.0
 10
4.656675
 20
111.421985
 30
0.0
  0
LINE
  5
17e
100
AcDbEntity
  8
Layer_1
 62
7
100
AcDbLine
 10
4.656675
 20
111.421985
 30
0.0
 11
4.656675
 21
111.421985
 31
0.0
  0
LINE
  5
17f
100
AcDbEntity
  8
Layer_1
 62
7
100
AcDbLine
 10
88.908821
 20
103.334545
 30
0.0
 11
102.905281
 21
103.334545
 31
0.0
  0
LINE
  5
180
100
AcDbEntity
  8
Layer_1
 62
7
100
AcDbLine
 10
102.905281
 20
103.334545
 30
0.0
 11
102.905281
 21
89.338075
 31
0.0
  0
LINE
  5
181
100
AcDbEntity
  8
Layer_1
 62
7
100
AcDbLine
 10
102.905281
 20
89.338075
 30
0.0
 11
88.908821
 21
89.338075
 31
0.0
  0
LINE
  5
182
100
AcDbEntity
  8
Layer_1
 62
7
100
AcDbLine
 10
88.908821
 20
89.338075
 30
0.0
 11
88.908821
 21
103.334545
 31
0.0
  0
LINE
  5
183
100
AcDbEntity
  8
Layer_1
 62
7
100
AcDbLine
 10
69.911731
 20
101.332515
 30
0.0
 11
83.908171
 21
101.332515
 31
0.0
  0
LINE
  5
184
100
AcDbEntity
  8
Layer_1
 62
7
100
AcDbLine
 10
83.908171
 20
101.332515
 30
0.0
 11
83.908171
 21
87.336055
 31
0.0
  0
LINE
  5
185
100
AcDbEntity
  8
Layer_1
 62
7
100
AcDbLine
 10
83.908171
 20
87.336055
 30
0.0
 11
69.911731
 21
87.336055
 31
0.0
  0
LINE
  5
186
100
AcDbEntity
  8
Layer_1
 62
7
100
AcDbLine
 10
69.911731
 20
87.336055
 30
0.0
 11
69.911731
 21
101.332515
 31
0.0
  0
LINE
  5
187
100
AcDbEntity
  8
Layer_1
 62
7
100
AcDbLine
 10
107.905901
 20
101.332515
 30
0.0
 11
121.911171
 21
101.332515
 31
0.0
  0
LINE
  5
188
100
AcDbEntity
  8
Layer_1
 62
7
100
AcDbLine
 10
121.911171
 20
101.332515
 30
0.0
 11
121.911171
 21
87.336055
 31
0.0
  0
LINE
  5
189
100
AcDbEntity
  8
Layer_1
 62
7
100
AcDbLine
 10
121.911171
 20
87.336055
 30
0.0
 11
107.905901
 21
87.336055
 31
0.0
  0
LINE
  5
18a
100
AcDbEntity
  8
Layer_1
 62
7
100
AcDbLine
 10
107.905901
 20
87.336055
 30
0.0
 11
107.905901
 21
101.332515
 31
0.0
  0
LINE
  5
18b
100
AcDbEntity
  8
Layer_1
 62
7
100
AcDbLine
 10
126.911771
 20
98.836615
 30
0.0
 11
140.908251
 21
98.836615
 31
0.0
  0
LINE
  5
18c
100
AcDbEntity
  8
Layer_1
 62
7
100
AcDbLine
 10
140.908251
 20
98.836615
 30
0.0
 11
140.908251
 21
84.840165
 31
0.0
  0
LINE
  5
18d
100
AcDbEntity
  8
Layer_1
 62
7
100
AcDbLine
 10
140.908251
 20
84.840165
 30
0.0
 11
126.911771
 21
84.840165
 31
0.0
  0
LINE
  5
18e
100
AcDbEntity
  8
Layer_1
 62
7
100
AcDbLine
 10
126.911771
 20
84.840165
 30
0.0
 11
126.911771
 21
98.836615
 31
0.0
  0
SPLINE
  5
18f
100
AcDbEntity
  8
Layer_1
 62
7
100
AcDbSpline
 70
8
 71
3
 72
8
 73
4
 74
0
 40
0
 40
0
 40
0
 40
0
 40
1
 40
1
 40
1
 40
1
 10
151.632691
 20
96.913975
 30
0.0
 10
152.703301
 20
96.913975
 30
0.0
 10
153.564171
 20
96.053125
 30
0.0
 10
153.564171
 20
94.982515
 30
0.0
  0
SPLINE
  5
190
100
AcDbEntity
  8
Layer_1
 62
7
100
AcDbSpline
 70
8
 71
3
 72
8
 73
4
 74
0
 40
0
 40
0
 40
0
 40
0
 40
1
 40
1
 40
1
 40
1
 10
153.564171
 20
94.982515
 30
0.0
 10
153.564171
 20
93.911905
 30
0.0
 10
152.703301
 20
93.042245
 30
0.0
 10
151.632691
 20
93.042245
 30
0.0
  0
SPLINE
  5
191
100
AcDbEntity
  8
Layer_1
 62
7
100
AcDbSpline
 70
8
 71
3
 72
8
 73
4
 74
0
 40
0
 40
0
 40
0
 40
0
 40
1
 40
1
 40
1
 40
1
 10
151.632691
 20
93.042245
 30
0.0
 10
150.562081
 20
93.042245
 30
0.0
 10
149.692421
 20
93.911905
 30
0.0
 10
149.692421
 20
94.982515
 30
0.0
  0
SPLINE
  5
192
100
AcDbEntity
  8
Layer_1
 62
7
100
AcDbSpline
 70
8
 71
3
 72
8
 73
4
 74
0
 40
0
 40
0
 40
0
 40
0
 40
1
 40
1
 40
1
 40
1
 10
149.692421
 20
94.982515
 30
0.0
 10
149.692421
 20
96.053125
 30
0.0
 10
150.562081
 20
96.913975
 30
0.0
 10
151.632691
 20
96.913975
 30
0.0
  0
LINE
  5
193
100
AcDbEntity
  8
Layer_1
 62
7
100
AcDbLine
 10
151.632691
 20
96.913975
 30
0.0
 11
151.632691
 21
96.913975
 31
0.0
  0
LINE
  5
194
100
AcDbEntity
  8
Layer_1
 62
7
100
AcDbLine
 10
8.149175
 20
96.384805
 30
0.0
 11
22.145607
 21
96.384805
 31
0.0
  0
LINE
  5
195
100
AcDbEntity
  8
Layer_1
 62
7
100
AcDbLine
 10
22.145607
 20
96.384805
 30
0.0
 11
22.145607
 21
82.388345
 31
0.0
  0
LINE
  5
196
100
AcDbEntity
  8
Layer_1
 62
7
100
AcDbLine
 10
22.145607
 20
82.388345
 30
0.0
 11
8.149175
 21
82.388345
 31
0.0
  0
LINE
  5
197
100
AcDbEntity
  8
Layer_1
 62
7
100
AcDbLine
 10
8.149175
 20
82.388345
 30
0.0
 11
8.149175
 21
96.384805
 31
0.0
  0
LINE
  5
198
100
AcDbEntity
  8
Layer_1
 62
7
100
AcDbLine
 10
31.908731
 20
96.340705
 30
0.0
 11
45.905190
 21
96.340705
 31
0.0
  0
LINE
  5
199
100
AcDbEntity
  8
Layer_1
 62
7
100
AcDbLine
 10
45.905190
 20
96.340705
 30
0.0
 11
45.905190
 21
82.335405
 31
0.0
  0
LINE
  5
19a
100
AcDbEntity
  8
Layer_1
 62
7
100
AcDbLine
 10
45.905190
 20
82.335405
 30
0.0
 11
31.908731
 21
82.335405
 31
0.0
  0
LINE
  5
19b
100
AcDbEntity
  8
Layer_1
 62
7
100
AcDbLine
 10
31.908731
 20
82.335405
 30
0.0
 11
31.908731
 21
96.340705
 31
0.0
  0
LINE
  5
19c
100
AcDbEntity
  8
Layer_1
 62
7
100
AcDbLine
 10
50.905841
 20
96.340705
 30
0.0
 11
64.911111
 21
96.340705
 31
0.0
  0
LINE
  5
19d
100
AcDbEntity
  8
Layer_1
 62
7
100
AcDbLine
 10
64.911111
 20
96.340705
 30
0.0
 11
64.911111
 21
82.335405
 31
0.0
  0
LINE
  5
19e
100
AcDbEntity
  8
Layer_1
 62
7
100
AcDbLine
 10
64.911111
 20
82.335405
 30
0.0
 11
50.905841
 21
82.335405
 31
0.0
  0
LINE
  5
19f
100
AcDbEntity
  8
Layer_1
 62
7
100
AcDbLine
 10
50.905841
 20
82.335405
 30
0.0
 11
50.905841
 21
96.340705
 31
0.0
  0
SPLINE
  5
1a0
100
AcDbEntity
  8
Layer_1
 62
7
100
AcDbSpline
 70
8
 71
3
 72
8
 73
4
 74
0
 40
0
 40
0
 40
0
 40
0
 40
1
 40
1
 40
1
 40
1
 10
117.818941
 20
82.626455
 30
0.0
 10
118.889551
 20
82.626455
 30
0.0
 10
119.759241
 20
81.756795
 30
0.0
 10
119.759241
 20
80.686185
 30
0.0
  0
SPLINE
  5
1a1
100
AcDbEntity
  8
Layer_1
 62
7
100
AcDbSpline
 70
8
 71
3
 72
8
 73
4
 74
0
 40
0
 40
0
 40
0
 40
0
 40
1
 40
1
 40
1
 40
1
 10
119.759241
 20
80.686185
 30
0.0
 10
119.759241
 20
79.615575
 30
0.0
 10
118.889551
 20
78.745915
 30
0.0
 10
117.818941
 20
78.745915
 30
0.0
  0
SPLINE
  5
1a2
100
AcDbEntity
  8
Layer_1
 62
7
100
AcDbSpline
 70
8
 71
3
 72
8
 73
4
 74
0
 40
0
 40
0
 40
0
 40
0
 40
1
 40
1
 40
1
 40
1
 10
117.818941
 20
78.745915
 30
0.0
 10
116.748331
 20
78.745915
 30
0.0
 10
115.878671
 20
79.615575
 30
0.0
 10
115.878671
 20
80.686185
 30
0.0
  0
SPLINE
  5
1a3
100
AcDbEntity
  8
Layer_1
 62
7
100
AcDbSpline
 70
8
 71
3
 72
8
 73
4
 74
0
 40
0
 40
0
 40
0
 40
0
 40
1
 40
1
 40
1
 40
1
 10
115.878671
 20
80.686185
 30
0.0
 10
115.878671
 20
81.756795
 30
0.0
 10
116.748331
 20
82.626455
 30
0.0
 10
117.818941
 20
82.626455
 30
0.0
  0
LINE
  5
1a4
100
AcDbEntity
  8
Layer_1
 62
7
100
AcDbLine
 10
117.818941
 20
82.626455
 30
0.0
 11
117.818941
 21
82.626455
 31
0.0
  0
LINE
  5
1a5
100
AcDbEntity
  8
Layer_1
 62
7
100
AcDbLine
 10
10.530399
 20
77.334785
 30
0.0
 11
24.526857
 21
77.334785
 31
0.0
  0
LINE
  5
1a6
100
AcDbEntity
  8
Layer_1
 62
7
100
AcDbLine
 10
24.526857
 20
77.334785
 30
0.0
 11
24.526857
 21
63.338325
 31
0.0
  0
LINE
  5
1a7
100
AcDbEntity
  8
Layer_1
 62
7
100
AcDbLine
 10
24.526857
 20
63.338325
 30
0.0
 11
10.530399
 21
63.338325
 31
0.0
  0
LINE
  5
1a8
100
AcDbEntity
  8
Layer_1
 62
7
100
AcDbLine
 10
10.530399
 20
63.338325
 30
0.0
 11
10.530399
 21
77.334785
 31
0.0
  0
LINE
  5
1a9
100
AcDbEntity
  8
Layer_1
 62
7
100
AcDbLine
 10
31.908731
 20
77.334785
 30
0.0
 11
45.905190
 21
77.334785
 31
0.0
  0
LINE
  5
1aa
100
AcDbEntity
  8
Layer_1
 62
7
100
AcDbLine
 10
45.905190
 20
77.334785
 30
0.0
 11
45.905190
 21
63.338325
 31
0.0
  0
LINE
  5
1ab
100
AcDbEntity
  8
Layer_1
 62
7
100
AcDbLine
 10
45.905190
 20
63.338325
 30
0.0
 11
31.908731
 21
63.338325
 31
0.0
  0
LINE
  5
1ac
100
AcDbEntity
  8
Layer_1
 62
7
100
AcDbLine
 10
31.908731
 20
63.338325
 30
0.0
 11
31.908731
 21
77.334785
 31
0.0
  0
LINE
  5
1ad
100
AcDbEntity
  8
Layer_1
 62
7
100
AcDbLine
 10
132.423941
 20
72.828055
 30
0.0
 11
145.582571
 21
68.039105
 31
0.0
  0
LINE
  5
1ae
100
AcDbEntity
  8
Layer_1
 62
7
100
AcDbLine
 10
145.582571
 20
68.039105
 30
0.0
 11
140.793611
 21
54.889305
 31
0.0
  0
LINE
  5
1af
100
AcDbEntity
  8
Layer_1
 62
7
100
AcDbLine
 10
140.793611
 20
54.889305
 30
0.0
 11
127.635011
 21
59.678265
 31
0.0
  0
LINE
  5
1b0
100
AcDbEntity
  8
Layer_1
 62
7
100
AcDbLine
 10
127.635011
 20
59.678265
 30
0.0
 11
132.423941
 21
72.828055
 31
0.0
  0
SPLINE
  5
1b1
100
AcDbEntity
  8
Layer_1
 62
7
100
AcDbSpline
 70
8
 71
3
 72
8
 73
4
 74
0
 40
0
 40
0
 40
0
 40
0
 40
1
 40
1
 40
1
 40
1
 10
4.656675
 20
69.794155
 30
0.0
 10
5.727259
 20
69.794155
 30
0.0
 10
6.596944
 20
68.924505
 30
0.0
 10
6.596944
 20
67.853895
 30
0.0
  0
SPLINE
  5
1b2
100
AcDbEntity
  8
Layer_1
 62
7
100
AcDbSpline
 70
8
 71
3
 72
8
 73
4
 74
0
 40
0
 40
0
 40
0
 40
0
 40
1
 40
1
 40
1
 40
1
 10
6.596944
 20
67.853895
 30
0.0
 10
6.596944
 20
66.783285
 30
0.0
 10
5.727259
 20
65.913625
 30
0.0
 10
4.656675
 20
65.913625
 30
0.0
  0
SPLINE
  5
1b3
100
AcDbEntity
  8
Layer_1
 62
7
100
AcDbSpline
 70
8
 71
3
 72
8
 73
4
 74
0
 40
0
 40
0
 40
0
 40
0
 40
1
 40
1
 40
1
 40
1
 10
4.656675
 20
65.913625
 30
0.0
 10
3.586039
 20
65.913625
 30
0.0
 10
2.725191
 20
66.783285
 30
0.0
 10
2.725191
 20
67.853895
 30
0.0
  0
SPLINE
  5
1b4
100
AcDbEntity
  8
Layer_1
 62
7
100
AcDbSpline
 70
8
 71
3
 72
8
 73
4
 74
0
 40
0
 40
0
 40
0
 40
0
 40
1
 40
1
 40
1
 40
1
 10
2.725191
 20
67.853895
 30
0.0
 10
2.725191
 20
68.924505
 30
0.0
 10
3.586039
 20
69.794155
 30
0.0
 10
4.656675
 20
69.794155
 30
0.0
  0
LINE
  5
1b5
100
AcDbEntity
  8
Layer_1
 62
7
100
AcDbLine
 10
4.656675
 20
69.794155
 30
0.0
 11
4.656675
 21
69.794155
 31
0.0
  0
LINE
  5
1b6
100
AcDbEntity
  8
Layer_1
 62
7
100
AcDbLine
 10
117.139831
 20
52.922585
 30
0.0
 11
112.350901
 21
39.763955
 31
0.0
  0
LINE
  5
1b7
100
AcDbEntity
  8
Layer_1
 62
7
100
AcDbLine
 10
112.350901
 20
39.763955
 30
0.0
 11
99.192271
 21
44.552915
 31
0.0
  0
LINE
  5
1b8
100
AcDbEntity
  8
Layer_1
 62
7
100
AcDbLine
 10
99.192271
 20
44.552915
 30
0.0
 11
103.981231
 21
57.711545
 31
0.0
  0
LINE
  5
1b9
100
AcDbEntity
  8
Layer_1
 62
7
100
AcDbLine
 10
103.981231
 20
57.711545
 30
0.0
 11
117.139831
 21
52.922585
 31
0.0
  0
LINE
  5
1ba
100
AcDbEntity
  8
Layer_1
 62
7
100
AcDbLine
 10
151.906111
 20
63.338325
 30
0.0
 11
165.064741
 21
58.549375
 31
0.0
  0
LINE
  5
1bb
100
AcDbEntity
  8
Layer_1
 62
7
100
AcDbLine
 10
165.064741
 20
58.549375
 30
0.0
 11
160.275751
 21
45.390765
 31
0.0
  0
LINE
  5
1bc
100
AcDbEntity
  8
Layer_1
 62
7
100
AcDbLine
 10
160.275751
 20
45.390765
 30
0.0
 11
147.117151
 21
50.179725
 31
0.0
  0
LINE
  5
1bd
100
AcDbEntity
  8
Layer_1
 62
7
100
AcDbLine
 10
147.117151
 20
50.179725
 30
0.0
 11
151.906111
 21
63.338325
 31
0.0
  0
SPLINE
  5
1be
100
AcDbEntity
  8
Layer_1
 62
7
100
AcDbSpline
 70
8
 71
3
 72
8
 73
4
 74
0
 40
0
 40
0
 40
0
 40
0
 40
1
 40
1
 40
1
 40
1
 10
60.695401
 20
62.368205
 30
0.0
 10
61.766031
 20
62.368205
 30
0.0
 10
62.626851
 20
61.498525
 30
0.0
 10
62.626851
 20
60.427915
 30
0.0
  0
SPLINE
  5
1bf
100
AcDbEntity
  8
Layer_1
 62
7
100
AcDbSpline
 70
8
 71
3
 72
8
 73
4
 74
0
 40
0
 40
0
 40
0
 40
0
 40
1
 40
1
 40
1
 40
1
 10
62.626851
 20
60.427915
 30
0.0
 10
62.626851
 20
59.357305
 30
0.0
 10
61.766061
 20
58.496455
 30
0.0
 10
60.695401
 20
58.496455
 30
0.0
  0
SPLINE
  5
1c0
100
AcDbEntity
  8
Layer_1
 62
7
100
AcDbSpline
 70
8
 71
3
 72
8
 73
4
 74
0
 40
0
 40
0
 40
0
 40
0
 40
1
 40
1
 40
1
 40
1
 10
60.695401
 20
58.496455
 30
0.0
 10
59.624815
 20
58.496455
 30
0.0
 10
58.755209
 20
59.357305
 30
0.0
 10
58.755103
 20
60.427915
 30
0.0
  0
SPLINE
  5
1c1
100
AcDbEntity
  8
Layer_1
 62
7
100
AcDbSpline
 70
8
 71
3
 72
8
 73
4
 74
0
 40
0
 40
0
 40
0
 40
0
 40
1
 40
1
 40
1
 40
1
 10
58.755103
 20
60.427915
 30
0.0
 10
58.755103
 20
61.498525
 30
0.0
 10
59.624815
 20
62.368205
 30
0.0
 10
60.695401
 20
62.368205
 30
0.0
  0
LINE
  5
1c2
100
AcDbEntity
  8
Layer_1
 62
7
100
AcDbLine
 10
60.695401
 20
62.368205
 30
0.0
 11
60.695401
 21
62.368205
 31
0.0
  0
SPLINE
  5
1c3
100
AcDbEntity
  8
Layer_1
 62
7
100
AcDbSpline
 70
8
 71
3
 72
8
 73
4
 74
0
 40
0
 40
0
 40
0
 40
0
 40
1
 40
1
 40
1
 40
1
 10
170.885571
 20
60.516125
 30
0.0
 10
171.956131
 20
60.516125
 30
0.0
 10
172.825761
 20
59.646435
 30
0.0
 10
172.825841
 20
58.575825
 30
0.0
  0
SPLINE
  5
1c4
100
AcDbEntity
  8
Layer_1
 62
7
100
AcDbSpline
 70
8
 71
3
 72
8
 73
4
 74
0
 40
0
 40
0
 40
0
 40
0
 40
1
 40
1
 40
1
 40
1
 10
172.825841
 20
58.575825
 30
0.0
 10
172.825841
 20
57.505215
 30
0.0
 10
171.956131
 20
56.635555
 30
0.0
 10
170.885571
 20
56.635555
 30
0.0
  0
SPLINE
  5
1c5
100
AcDbEntity
  8
Layer_1
 62
7
100
AcDbSpline
 70
8
 71
3
 72
8
 73
4
 74
0
 40
0
 40
0
 40
0
 40
0
 40
1
 40
1
 40
1
 40
1
 10
170.885571
 20
56.635555
 30
0.0
 10
169.814911
 20
56.635555
 30
0.0
 10
168.945121
 20
57.505215
 30
0.0
 10
168.945281
 20
58.575825
 30
0.0
  0
SPLINE
  5
1c6
100
AcDbEntity
  8
Layer_1
 62
7
100
AcDbSpline
 70
8
 71
3
 72
8
 73
4
 74
0
 40
0
 40
0
 40
0
 40
0
 40
1
 40
1
 40
1
 40
1
 10
168.945281
 20
58.575825
 30
0.0
 10
168.945281
 20
59.646435
 30
0.0
 10
169.814861
 20
60.516125
 30
0.0
 10
170.885571
 20
60.516125
 30
0.0
  0
LINE
  5
1c7
100
AcDbEntity
  8
Layer_1
 62
7
100
AcDbLine
 10
170.885571
 20
60.516125
 30
0.0
 11
170.885571
 21
60.516125
 31
0.0
  0
LINE
  5
1c8
100
AcDbEntity
  8
Layer_1
 62
7
100
AcDbLine
 10
135.810611
 20
41.192705
 30
0.0
 11
131.021671
 21
28.034105
 31
0.0
  0
LINE
  5
1c9
100
AcDbEntity
  8
Layer_1
 62
7
100
AcDbLine
 10
131.021671
 20
28.034105
 30
0.0
 11
117.863071
 21
32.823055
 31
0.0
  0
LINE
  5
1ca
100
AcDbEntity
  8
Layer_1
 62
7
100
AcDbLine
 10
117.863071
 20
32.823055
 30
0.0
 11
122.652001
 21
45.981665
 31
0.0
  0
LINE
  5
1cb
100
AcDbEntity
  8
Layer_1
 62
7
100
AcDbLine
 10
122.652001
 20
45.981665
 30
0.0
 11
135.810611
 21
41.192705
 31
0.0
  0
LINE
  5
1cc
100
AcDbEntity
  8
Layer_1
 62
7
100
AcDbLine
 10
155.292781
 20
31.694165
 30
0.0
 11
150.503821
 21
18.544375
 31
0.0
  0
LINE
  5
1cd
100
AcDbEntity
  8
Layer_1
 62
7
100
AcDbLine
 10
150.503821
 20
18.544375
 30
0.0
 11
137.345191
 21
23.324515
 31
0.0
  0
LINE
  5
1ce
100
AcDbEntity
  8
Layer_1
 62
7
100
AcDbLine
 10
137.345191
 20
23.324515
 30
0.0
 11
142.134171
 21
36.483125
 31
0.0
  0
LINE
  5
1cf
100
AcDbEntity
  8
Layer_1
 62
7
100
AcDbLine
 10
142.134171
 20
36.483125
 30
0.0
 11
155.292781
 21
31.694165
 31
0.0
  0
SPLINE
  5
1d0
100
AcDbEntity
  8
Layer_1
 62
7
100
AcDbSpline
 70
8
 71
3
 72
8
 73
4
 74
0
 40
0
 40
0
 40
0
 40
0
 40
1
 40
1
 40
1
 40
1
 10
99.359831
 20
26.243765
 30
0.0
 10
100.430471
 20
26.243765
 30
0.0
 10
101.300291
 20
25.382915
 30
0.0
 10
101.300101
 20
24.312305
 30
0.0
  0
SPLINE
  5
1d1
100
AcDbEntity
  8
Layer_1
 62
7
100
AcDbSpline
 70
8
 71
3
 72
8
 73
4
 74
0
 40
0
 40
0
 40
0
 40
0
 40
1
 40
1
 40
1
 40
1
 10
101.300101
 20
24.312305
 30
0.0
 10
101.300101
 20
23.241695
 30
0.0
 10
100.430521
 20
22.372035
 30
0.0
 10
99.359831
 20
22.372035
 30
0.0
  0
SPLINE
  5
1d2
100
AcDbEntity
  8
Layer_1
 62
7
100
AcDbSpline
 70
8
 71
3
 72
8
 73
4
 74
0
 40
0
 40
0
 40
0
 40
0
 40
1
 40
1
 40
1
 40
1
 10
99.359831
 20
22.372035
 30
0.0
 10
98.289251
 20
22.372035
 30
0.0
 10
97.419701
 20
23.241695
 30
0.0
 10
97.419561
 20
24.312305
 30
0.0
  0
SPLINE
  5
1d3
100
AcDbEntity
  8
Layer_1
 62
7
100
AcDbSpline
 70
8
 71
3
 72
8
 73
4
 74
0
 40
0
 40
0
 40
0
 40
0
 40
1
 40
1
 40
1
 40
1
 10
97.419561
 20
24.312305
 30
0.0
 10
97.419561
 20
25.382915
 30
0.0
 10
98.289251
 20
26.243765
 30
0.0
 10
99.359831
 20
26.243765
 30
0.0
  0
LINE
  5
1d4
100
AcDbEntity
  8
Layer_1
 62
7
100
AcDbLine
 10
99.359831
 20
26.243765
 30
0.0
 11
99.359831
 21
26.243765
 31
0.0
  0
SPLINE
  5
1d5
100
AcDbEntity
  8
Layer_1
 62
7
100
AcDbSpline
 70
8
 71
3
 72
8
 73
4
 74
0
 40
0
 40
0
 40
0
 40
0
 40
1
 40
1
 40
1
 40
1
 10
150.724271
 20
8.463775
 30
0.0
 10
151.794931
 20
8.463775
 30
0.0
 10
152.664561
 20
7.594105
 30
0.0
 10
152.664561
 20
6.523495
 30
0.0
  0
SPLINE
  5
1d6
100
AcDbEntity
  8
Layer_1
 62
7
100
AcDbSpline
 70
8
 71
3
 72
8
 73
4
 74
0
 40
0
 40
0
 40
0
 40
0
 40
1
 40
1
 40
1
 40
1
 10
152.664561
 20
6.523495
 30
0.0
 10
152.664561
 20
5.452885
 30
0.0
 10
151.794991
 20
4.592035
 30
0.0
 10
150.724271
 20
4.592035
 30
0.0
  0
SPLINE
  5
1d7
100
AcDbEntity
  8
Layer_1
 62
7
100
AcDbSpline
 70
8
 71
3
 72
8
 73
4
 74
0
 40
0
 40
0
 40
0
 40
0
 40
1
 40
1
 40
1
 40
1
 10
150.724271
 20
4.592035
 30
0.0
 10
149.653711
 20
4.592035
 30
0.0
 10
148.784131
 20
5.452885
 30
0.0
 10
148.784001
 20
6.523495
 30
0.0
  0
SPLINE
  5
1d8
100
AcDbEntity
  8
Layer_1
 62
7
100
AcDbSpline
 70
8
 71
3
 72
8
 73
4
 74
0
 40
0
 40
0
 40
0
 40
0
 40
1
 40
1
 40
1
 40
1
 10
148.784001
 20
6.523495
 30
0.0
 10
148.784001
 20
7.594105
 30
0.0
 10
149.653711
 20
8.463775
 30
0.0
 10
150.724271
 20
8.463775
 30
0.0
  0
LINE
  5
1d9
100
AcDbEntity
  8
Layer_1
 62
7
100
AcDbLine
 10
150.724271
 20
8.463775
 30
0.0
 11
150.724271
 21
8.463775
 31
0.0
  0
ENDSEC
  0
SECTION
  2
OBJECTS
  0
DICTIONARY
  5
C
330
0
100
AcDbDictionary
  3
ACAD_GROUP
350
D
  3
ACAD_MLINESTYLE
350
17
  0
DICTIONARY
  5
D
330
C
100
AcDbDictionary
  0
DICTIONARY
  5
1A
330
C
100
AcDbDictionary
  0
DICTIONARY
  5
17
330
C
100
AcDbDictionary
  3
STANDARD
350
18
  0
DICTIONARY
  5
19
330
C
100
AcDbDictionary
  0
ENDSEC
  0
EOF
