  0
SECTION
  2
HEADER
  9
$ACADVER
  1
AC1014
  9
$HANDSEED
  5
FFFF
  9
$MEASUREMENT
 70
     1
  0
ENDSEC
  0
SECTION
  2
TABLES
  0
TABLE
  2
VPORT
  5
8
330
0
100
AcDbSymbolTable
 70
     4
  0
VPORT
  5
2E
330
8
100
AcDbSymbolTableRecord
100
AcDbViewportTableRecord
  2
*ACTIVE
 70
     0
 10
0.0
 20
0.0
 11
1.0
 21
1.0
 12
210.0
 22
148.5
 13
0.0
 23
0.0
 14
10.0
 24
10.0
 15
10.0
 25
10.0
 16
0.0
 26
0.0
 36
1.0
 17
0.0
 27
0.0
 37
0.0
 40
341.0
 41
1.24
 42
50.0
 43
0.0
 44
0.0
 50
0.0
 51
0.0
 71
     0
 72
   100
 73
     1
 74
     3
 75
     0
 76
     0
 77
     0
 78
     0
  0
ENDTAB
  0
TABLE
  2
LTYPE
  5
5
330
0
100
AcDbSymbolTable
 70
     1
  0
LTYPE
  5
14
330
5
100
AcDbSymbolTableRecord
100
AcDbLinetypeTableRecord
  2
BYBLOCK
 70
     0
  3

 72
    65
 73
     0
 40
0.0
  0
LTYPE
  5
15
330
5
100
AcDbSymbolTableRecord
100
AcDbLinetypeTableRecord
  2
BYLAYER
 70
     0
  3

 72
    65
 73
     0
 40
0.0
  0
LTYPE
  5
16
330
5
100
AcDbSymbolTableRecord
100
AcDbLinetypeTableRecord
  2
CONTINUOUS
 70
     0
  3
Solid line
 72
    65
 73
     0
 40
0.0
  0
ENDTAB
  0
TABLE
  2
LAYER
  5
2
100
AcDbSymbolTable
 70
2
  0
LAYER
  5
50
100
AcDbSymbolTableRecord
100
AcDbLayerTableRecord
  2
0
 70
0
  6
CONTINUOUS
  0
LAYER
  5
51
100
AcDbSymbolTableRecord
100
AcDbLayerTableRecord
  2
Layer_1
 70
0
  6
CONTINUOUS
  0
ENDTAB
  0
TABLE
  2
STYLE
  5
3
330
0
100
AcDbSymbolTable
 70
     1
  0
STYLE
  5
11
330
3
100
AcDbSymbolTableRecord
100
AcDbTextStyleTableRecord
  2
STANDARD
 70
     0
 40
0.0
 41
1.0
 50
0.0
 71
     0
 42
2.5
  3
txt
  4

  0
ENDTAB
  0
TABLE
  2
VIEW
  5
6
330
0
100
AcDbSymbolTable
 70
     0
  0
ENDTAB
  0
TABLE
  2
UCS
  5
7
330
0
100
AcDbSymbolTable
 70
     0
  0
ENDTAB
  0
TABLE
  2
APPID
  5
9
330
0
100
AcDbSymbolTable
 70
     2
  0
APPID
  5
12
330
9
100
AcDbSymbolTableRecord
100
AcDbRegAppTableRecord
  2
ACAD
 70
     0
  0
ENDTAB
  0
TABLE
  2
DIMSTYLE
  5
A
330
0
100
AcDbSymbolTable
 70
     1
  0
DIMSTYLE
105
27
330
A
100
AcDbSymbolTableRecord
100
AcDbDimStyleTableRecord
  2
ISO-25
 70
     0
  3

  4

  5

  6

  7

 40
1.0
 41
2.5
 42
0.625
 43
3.75
 44
1.25
 45
0.0
 46
0.0
 47
0.0
 48
0.0
140
2.5
141
2.5
142
0.0
143
0.03937007874016
144
1.0
145
0.0
146
1.0
147
0.625
 71
     0
 72
     0
 73
     0
 74
     0
 75
     0
 76
     0
 77
     1
 78
     8
170
     0
171
     3
172
     1
173
     0
174
     0
175
     0
176
     0
177
     0
178
     0
270
     2
271
     2
272
     2
273
     2
274
     3
340
11
275
     0
280
     0
281
     0
282
     0
283
     0
284
     8
285
     0
286
     0
287
     3
288
     0
  0
ENDTAB
  0
TABLE
  2
BLOCK_RECORD
  5
1
330
0
100
AcDbSymbolTable
 70
     1
  0
BLOCK_RECORD
  5
1F
330
1
100
AcDbSymbolTableRecord
100
AcDbBlockTableRecord
  2
*MODEL_SPACE
  0
BLOCK_RECORD
  5
1B
330
1
100
AcDbSymbolTableRecord
100
AcDbBlockTableRecord
  2
*PAPER_SPACE
  0
ENDTAB
  0
ENDSEC
  0
SECTION
  2
BLOCKS
  0
BLOCK
  5
20
330
1F
100
AcDbEntity
  8
0
100
AcDbBlockBegin
  2
*MODEL_SPACE
 70
     0
 10
0.0
 20
0.0
 30
0.0
  3
*MODEL_SPACE
  1

  0
ENDBLK
  5
21
330
1F
100
AcDbEntity
  8
0
100
AcDbBlockEnd
  0
BLOCK
  5
1C
330
1B
100
AcDbEntity
 67
     1
  8
0
100
AcDbBlockBegin
  2
*PAPER_SPACE
  1

  0
ENDBLK
  5
1D
330
1B
100
AcDbEntity
 67
     1
  8
0
100
AcDbBlockEnd
  0
ENDSEC
  0
SECTION
  2
ENTITIES
  0
LINE
  5
100
100
AcDbEntity
  8
Layer_1
 62
7
100
AcDbLine
 10
67.509796
 20
169.254915
 30
0.0
 11
8.193756
 21
161.211892
 31
0.0
  0
LINE
  5
101
100
AcDbEntity
  8
Layer_1
 62
7
100
AcDbLine
 10
8.193756
 20
161.211892
 30
0.0
 11
0.141886
 21
153.168870
 31
0.0
  0
LINE
  5
102
100
AcDbEntity
  8
Layer_1
 62
7
100
AcDbLine
 10
0.141886
 20
153.168870
 30
0.0
 11
0.141886
 21
63.684911
 31
0.0
  0
LINE
  5
103
100
AcDbEntity
  8
Layer_1
 62
7
100
AcDbLine
 10
0.141886
 20
63.684911
 30
0.0
 11
8.193756
 21
55.641910
 31
0.0
  0
LINE
  5
104
100
AcDbEntity
  8
Layer_1
 62
7
100
AcDbLine
 10
8.193756
 20
55.641910
 30
0.0
 11
67.509796
 21
55.641910
 31
0.0
  0
LINE
  5
105
100
AcDbEntity
  8
Layer_1
 62
7
100
AcDbLine
 10
67.509796
 20
55.641910
 30
0.0
 11
95.824346
 21
19.488292
 31
0.0
  0
LINE
  5
106
100
AcDbEntity
  8
Layer_1
 62
7
100
AcDbLine
 10
95.824346
 20
19.488292
 30
0.0
 11
148.959613
 21
0.147833
 31
0.0
  0
LINE
  5
107
100
AcDbEntity
  8
Layer_1
 62
7
100
AcDbLine
 10
148.959613
 20
0.147833
 30
0.0
 11
159.122030
 21
2.550980
 31
0.0
  0
LINE
  5
108
100
AcDbEntity
  8
Layer_1
 62
7
100
AcDbLine
 10
159.122030
 20
2.550980
 30
0.0
 11
176.343073
 21
49.877903
 31
0.0
  0
LINE
  5
109
100
AcDbEntity
  8
Layer_1
 62
7
100
AcDbLine
 10
176.343073
 20
49.877903
 30
0.0
 11
178.444740
 21
55.641910
 31
0.0
  0
LINE
  5
10a
100
AcDbEntity
  8
Layer_1
 62
7
100
AcDbLine
 10
178.444740
 20
55.641910
 30
0.0
 11
175.571600
 21
65.795425
 31
0.0
  0
LINE
  5
10b
100
AcDbEntity
  8
Layer_1
 62
7
100
AcDbLine
 10
175.571600
 20
65.795425
 30
0.0
 11
157.002636
 21
73.625599
 31
0.0
  0
LINE
  5
10c
100
AcDbEntity
  8
Layer_1
 62
7
100
AcDbLine
 10
157.002636
 20
73.625599
 30
0.0
 11
157.002636
 21
115.809269
 31
0.0
  0
LINE
  5
10d
100
AcDbEntity
  8
Layer_1
 62
7
100
AcDbLine
 10
157.002636
 20
115.809269
 30
0.0
 11
165.045658
 21
123.807933
 31
0.0
  0
LINE
  5
10e
100
AcDbEntity
  8
Layer_1
 62
7
100
AcDbLine
 10
165.045658
 20
123.807933
 30
0.0
 11
165.045658
 21
161.211892
 31
0.0
  0
LINE
  5
10f
100
AcDbEntity
  8
Layer_1
 62
7
100
AcDbLine
 10
165.045658
 20
161.211892
 30
0.0
 11
148.959613
 21
161.211892
 31
0.0
  0
LINE
  5
110
100
AcDbEntity
  8
Layer_1
 62
7
100
AcDbLine
 10
148.959613
 20
161.211892
 30
0.0
 11
141.918684
 21
169.254915
 31
0.0
  0
LINE
  5
111
100
AcDbEntity
  8
Layer_1
 62
7
100
AcDbLine
 10
141.918684
 20
169.254915
 30
0.0
 11
67.509796
 21
169.254915
 31
0.0
  0
SPLINE
  5
112
100
AcDbEntity
  8
Layer_1
 62
7
100
AcDbSpline
 70
8
 71
3
 72
8
 73
4
 74
0
 40
0
 40
0
 40
0
 40
0
 40
1
 40
1
 40
1
 40
1
 10
72.050056
 20
166.567983
 30
0.0
 10
73.126527
 20
166.567983
 30
0.0
 10
74.000960
 20
165.693550
 30
0.0
 10
74.000960
 20
164.617090
 30
0.0
  0
SPLINE
  5
113
100
AcDbEntity
  8
Layer_1
 62
7
100
AcDbSpline
 70
8
 71
3
 72
8
 73
4
 74
0
 40
0
 40
0
 40
0
 40
0
 40
1
 40
1
 40
1
 40
1
 10
74.000960
 20
164.617090
 30
0.0
 10
74.000960
 20
163.540618
 30
0.0
 10
73.126527
 20
162.675108
 30
0.0
 10
72.050056
 20
162.675044
 30
0.0
  0
SPLINE
  5
114
100
AcDbEntity
  8
Layer_1
 62
7
100
AcDbSpline
 70
8
 71
3
 72
8
 73
4
 74
0
 40
0
 40
0
 40
0
 40
0
 40
1
 40
1
 40
1
 40
1
 10
72.050056
 20
162.675044
 30
0.0
 10
70.973594
 20
162.675044
 30
0.0
 10
70.108052
 20
163.540618
 30
0.0
 10
70.108021
 20
164.617090
 30
0.0
  0
SPLINE
  5
115
100
AcDbEntity
  8
Layer_1
 62
7
100
AcDbSpline
 70
8
 71
3
 72
8
 73
4
 74
0
 40
0
 40
0
 40
0
 40
0
 40
1
 40
1
 40
1
 40
1
 10
70.108021
 20
164.617090
 30
0.0
 10
70.108021
 20
165.693550
 30
0.0
 10
70.973594
 20
166.567983
 30
0.0
 10
72.050056
 20
166.567983
 30
0.0
  0
LINE
  5
116
100
AcDbEntity
  8
Layer_1
 62
7
100
AcDbLine
 10
72.050056
 20
166.567983
 30
0.0
 11
72.050056
 21
166.567983
 31
0.0
  0
SPLINE
  5
117
100
AcDbEntity
  8
Layer_1
 62
7
100
AcDbSpline
 70
8
 71
3
 72
8
 73
4
 74
0
 40
0
 40
0
 40
0
 40
0
 40
1
 40
1
 40
1
 40
1
 10
137.378425
 20
166.567983
 30
0.0
 10
138.454864
 20
166.567983
 30
0.0
 10
139.329233
 20
165.693550
 30
0.0
 10
139.329318
 20
164.617090
 30
0.0
  0
SPLINE
  5
118
100
AcDbEntity
  8
Layer_1
 62
7
100
AcDbSpline
 70
8
 71
3
 72
8
 73
4
 74
0
 40
0
 40
0
 40
0
 40
0
 40
1
 40
1
 40
1
 40
1
 10
139.329318
 20
164.617090
 30
0.0
 10
139.329318
 20
163.540618
 30
0.0
 10
138.454864
 20
162.675108
 30
0.0
 10
137.378425
 20
162.675044
 30
0.0
  0
SPLINE
  5
119
100
AcDbEntity
  8
Layer_1
 62
7
100
AcDbSpline
 70
8
 71
3
 72
8
 73
4
 74
0
 40
0
 40
0
 40
0
 40
0
 40
1
 40
1
 40
1
 40
1
 10
137.378425
 20
162.675044
 30
0.0
 10
136.301932
 20
162.675044
 30
0.0
 10
135.427445
 20
163.540618
 30
0.0
 10
135.427531
 20
164.617090
 30
0.0
  0
SPLINE
  5
11a
100
AcDbEntity
  8
Layer_1
 62
7
100
AcDbSpline
 70
8
 71
3
 72
8
 73
4
 74
0
 40
0
 40
0
 40
0
 40
0
 40
1
 40
1
 40
1
 40
1
 10
135.427531
 20
164.617090
 30
0.0
 10
135.427531
 20
165.693550
 30
0.0
 10
136.301878
 20
166.567983
 30
0.0
 10
137.378425
 20
166.567983
 30
0.0
  0
LINE
  5
11b
100
AcDbEntity
  8
Layer_1
 62
7
100
AcDbLine
 10
137.378425
 20
166.567983
 30
0.0
 11
137.378425
 21
166.567983
 31
0.0
  0
LINE
  5
11c
100
AcDbEntity
  8
Layer_1
 62
7
100
AcDbLine
 10
89.395280
 20
161.211892
 30
0.0
 11
103.468333
 21
161.211892
 31
0.0
  0
LINE
  5
11d
100
AcDbEntity
  8
Layer_1
 62
7
100
AcDbLine
 10
103.468333
 20
161.211892
 30
0.0
 11
103.468333
 21
147.138839
 31
0.0
  0
LINE
  5
11e
100
AcDbEntity
  8
Layer_1
 62
7
100
AcDbLine
 10
103.468333
 20
147.138839
 30
0.0
 11
89.395280
 21
147.138839
 31
0.0
  0
LINE
  5
11f
100
AcDbEntity
  8
Layer_1
 62
7
100
AcDbLine
 10
89.395280
 20
147.138839
 30
0.0
 11
89.395280
 21
161.211892
 31
0.0
  0
LINE
  5
120
100
AcDbEntity
  8
Layer_1
 62
7
100
AcDbLine
 10
70.294260
 20
159.198911
 30
0.0
 11
84.367278
 21
159.198911
 31
0.0
  0
LINE
  5
121
100
AcDbEntity
  8
Layer_1
 62
7
100
AcDbLine
 10
84.367278
 20
159.198911
 30
0.0
 11
84.367278
 21
145.125880
 31
0.0
  0
LINE
  5
122
100
AcDbEntity
  8
Layer_1
 62
7
100
AcDbLine
 10
84.367278
 20
145.125880
 30
0.0
 11
70.294260
 21
145.125880
 31
0.0
  0
LINE
  5
123
100
AcDbEntity
  8
Layer_1
 62
7
100
AcDbLine
 10
70.294260
 20
145.125880
 30
0.0
 11
70.294260
 21
159.198911
 31
0.0
  0
LINE
  5
124
100
AcDbEntity
  8
Layer_1
 62
7
100
AcDbLine
 10
108.496313
 20
159.198911
 30
0.0
 11
122.578214
 21
159.198911
 31
0.0
  0
LINE
  5
125
100
AcDbEntity
  8
Layer_1
 62
7
100
AcDbLine
 10
122.578214
 20
159.198911
 30
0.0
 11
122.578214
 21
145.125880
 31
0.0
  0
LINE
  5
126
100
AcDbEntity
  8
Layer_1
 62
7
100
AcDbLine
 10
122.578214
 20
145.125880
 30
0.0
 11
108.496313
 21
145.125880
 31
0.0
  0
LINE
  5
127
100
AcDbEntity
  8
Layer_1
 62
7
100
AcDbLine
 10
108.496313
 20
145.125880
 30
0.0
 11
108.496313
 21
159.198911
 31
0.0
  0
LINE
  5
128
100
AcDbEntity
  8
Layer_1
 62
7
100
AcDbLine
 10
127.606195
 20
156.689361
 30
0.0
 11
141.679248
 21
156.689361
 31
0.0
  0
LINE
  5
129
100
AcDbEntity
  8
Layer_1
 62
7
100
AcDbLine
 10
141.679248
 20
156.689361
 30
0.0
 11
141.679248
 21
142.607449
 31
0.0
  0
LINE
  5
12a
100
AcDbEntity
  8
Layer_1
 62
7
100
AcDbLine
 10
141.679248
 20
142.607449
 30
0.0
 11
127.606195
 21
142.607449
 31
0.0
  0
LINE
  5
12b
100
AcDbEntity
  8
Layer_1
 62
7
100
AcDbLine
 10
127.606195
 20
142.607449
 30
0.0
 11
127.606195
 21
156.689361
 31
0.0
  0
LINE
  5
12c
100
AcDbEntity
  8
Layer_1
 62
7
100
AcDbLine
 10
12.982312
 20
154.374878
 30
0.0
 11
27.055343
 21
154.374878
 31
0.0
  0
LINE
  5
12d
100
AcDbEntity
  8
Layer_1
 62
7
100
AcDbLine
 10
27.055343
 20
154.374878
 30
0.0
 11
27.055343
 21
140.301848
 31
0.0
  0
LINE
  5
12e
100
AcDbEntity
  8
Layer_1
 62
7
100
AcDbLine
 10
27.055343
 20
140.301848
 30
0.0
 11
12.982312
 21
140.301848
 31
0.0
  0
LINE
  5
12f
100
AcDbEntity
  8
Layer_1
 62
7
100
AcDbLine
 10
12.982312
 20
140.301848
 30
0.0
 11
12.982312
 21
154.374878
 31
0.0
  0
LINE
  5
130
100
AcDbEntity
  8
Layer_1
 62
7
100
AcDbLine
 10
32.083312
 20
154.179822
 30
0.0
 11
46.156377
 21
154.179822
 31
0.0
  0
LINE
  5
131
100
AcDbEntity
  8
Layer_1
 62
7
100
AcDbLine
 10
46.156377
 20
154.179822
 30
0.0
 11
46.156377
 21
140.097910
 31
0.0
  0
LINE
  5
132
100
AcDbEntity
  8
Layer_1
 62
7
100
AcDbLine
 10
46.156377
 20
140.097910
 30
0.0
 11
32.083312
 21
140.097910
 31
0.0
  0
LINE
  5
133
100
AcDbEntity
  8
Layer_1
 62
7
100
AcDbLine
 10
32.083312
 20
140.097910
 30
0.0
 11
32.083312
 21
154.179822
 31
0.0
  0
LINE
  5
134
100
AcDbEntity
  8
Layer_1
 62
7
100
AcDbLine
 10
51.184377
 20
154.179822
 30
0.0
 11
65.266279
 21
154.179822
 31
0.0
  0
LINE
  5
135
100
AcDbEntity
  8
Layer_1
 62
7
100
AcDbLine
 10
65.266279
 20
154.179822
 30
0.0
 11
65.266279
 21
140.097910
 31
0.0
  0
LINE
  5
136
100
AcDbEntity
  8
Layer_1
 62
7
100
AcDbLine
 10
65.266279
 20
140.097910
 30
0.0
 11
51.184377
 21
140.097910
 31
0.0
  0
LINE
  5
137
100
AcDbEntity
  8
Layer_1
 62
7
100
AcDbLine
 10
51.184377
 20
140.097910
 30
0.0
 11
51.184377
 21
154.179822
 31
0.0
  0
SPLINE
  5
138
100
AcDbEntity
  8
Layer_1
 62
7
100
AcDbSpline
 70
8
 71
3
 72
8
 73
4
 74
0
 40
0
 40
0
 40
0
 40
0
 40
1
 40
1
 40
1
 40
1
 10
4.682146
 20
151.581565
 30
0.0
 10
5.758585
 20
151.581565
 30
0.0
 10
6.633040
 20
150.707143
 30
0.0
 10
6.633040
 20
149.630671
 30
0.0
  0
SPLINE
  5
139
100
AcDbEntity
  8
Layer_1
 62
7
100
AcDbSpline
 70
8
 71
3
 72
8
 73
4
 74
0
 40
0
 40
0
 40
0
 40
0
 40
1
 40
1
 40
1
 40
1
 10
6.633040
 20
149.630671
 30
0.0
 10
6.633040
 20
148.554200
 30
0.0
 10
5.758585
 20
147.688658
 30
0.0
 10
4.682146
 20
147.688658
 30
0.0
  0
SPLINE
  5
13a
100
AcDbEntity
  8
Layer_1
 62
7
100
AcDbSpline
 70
8
 71
3
 72
8
 73
4
 74
0
 40
0
 40
0
 40
0
 40
0
 40
1
 40
1
 40
1
 40
1
 10
4.682146
 20
147.688658
 30
0.0
 10
3.605653
 20
147.688658
 30
0.0
 10
2.740111
 20
148.554200
 30
0.0
 10
2.740111
 20
149.630671
 30
0.0
  0
SPLINE
  5
13b
100
AcDbEntity
  8
Layer_1
 62
7
100
AcDbSpline
 70
8
 71
3
 72
8
 73
4
 74
0
 40
0
 40
0
 40
0
 40
0
 40
1
 40
1
 40
1
 40
1
 10
2.740111
 20
149.630671
 30
0.0
 10
2.740111
 20
150.707143
 30
0.0
 10
3.605653
 20
151.581565
 30
0.0
 10
4.682146
 20
151.581565
 30
0.0
  0
LINE
  5
13c
100
AcDbEntity
  8
Layer_1
 62
7
100
AcDbLine
 10
4.682146
 20
151.581565
 30
0.0
 11
4.682146
 21
151.581565
 31
0.0
  0
LINE
  5
13d
100
AcDbEntity
  8
Layer_1
 62
7
100
AcDbLine
 10
89.395280
 20
142.110859
 30
0.0
 11
103.468333
 21
142.110859
 31
0.0
  0
LINE
  5
13e
100
AcDbEntity
  8
Layer_1
 62
7
100
AcDbLine
 10
103.468333
 20
142.110859
 30
0.0
 11
103.468333
 21
128.028940
 31
0.0
  0
LINE
  5
13f
100
AcDbEntity
  8
Layer_1
 62
7
100
AcDbLine
 10
103.468333
 20
128.028940
 30
0.0
 11
89.395280
 21
128.028940
 31
0.0
  0
LINE
  5
140
100
AcDbEntity
  8
Layer_1
 62
7
100
AcDbLine
 10
89.395280
 20
128.028940
 30
0.0
 11
89.395280
 21
142.110859
 31
0.0
  0
LINE
  5
141
100
AcDbEntity
  8
Layer_1
 62
7
100
AcDbLine
 10
70.294260
 20
140.097910
 30
0.0
 11
84.367278
 21
140.097910
 31
0.0
  0
LINE
  5
142
100
AcDbEntity
  8
Layer_1
 62
7
100
AcDbLine
 10
84.367278
 20
140.097910
 30
0.0
 11
84.367278
 21
126.024861
 31
0.0
  0
LINE
  5
143
100
AcDbEntity
  8
Layer_1
 62
7
100
AcDbLine
 10
84.367278
 20
126.024861
 30
0.0
 11
70.294260
 21
126.024861
 31
0.0
  0
LINE
  5
144
100
AcDbEntity
  8
Layer_1
 62
7
100
AcDbLine
 10
70.294260
 20
126.024861
 30
0.0
 11
70.294260
 21
140.097910
 31
0.0
  0
LINE
  5
145
100
AcDbEntity
  8
Layer_1
 62
7
100
AcDbLine
 10
108.496313
 20
140.097910
 30
0.0
 11
122.578214
 21
140.097910
 31
0.0
  0
LINE
  5
146
100
AcDbEntity
  8
Layer_1
 62
7
100
AcDbLine
 10
122.578214
 20
140.097910
 30
0.0
 11
122.578214
 21
126.024861
 31
0.0
  0
LINE
  5
147
100
AcDbEntity
  8
Layer_1
 62
7
100
AcDbLine
 10
122.578214
 20
126.024861
 30
0.0
 11
108.496313
 21
126.024861
 31
0.0
  0
LINE
  5
148
100
AcDbEntity
  8
Layer_1
 62
7
100
AcDbLine
 10
108.496313
 20
126.024861
 30
0.0
 11
108.496313
 21
140.097910
 31
0.0
  0
LINE
  5
149
100
AcDbEntity
  8
Layer_1
 62
7
100
AcDbLine
 10
127.606195
 20
137.588343
 30
0.0
 11
141.679248
 21
137.588343
 31
0.0
  0
LINE
  5
14a
100
AcDbEntity
  8
Layer_1
 62
7
100
AcDbLine
 10
141.679248
 20
137.588343
 30
0.0
 11
141.679248
 21
123.506431
 31
0.0
  0
LINE
  5
14b
100
AcDbEntity
  8
Layer_1
 62
7
100
AcDbLine
 10
141.679248
 20
123.506431
 30
0.0
 11
127.606195
 21
123.506431
 31
0.0
  0
LINE
  5
14c
100
AcDbEntity
  8
Layer_1
 62
7
100
AcDbLine
 10
127.606195
 20
123.506431
 30
0.0
 11
127.606195
 21
137.588343
 31
0.0
  0
LINE
  5
14d
100
AcDbEntity
  8
Layer_1
 62
7
100
AcDbLine
 10
10.588013
 20
135.220653
 30
0.0
 11
24.661066
 21
135.220653
 31
0.0
  0
LINE
  5
14e
100
AcDbEntity
  8
Layer_1
 62
7
100
AcDbLine
 10
24.661066
 20
135.220653
 30
0.0
 11
24.661066
 21
121.147610
 31
0.0
  0
LINE
  5
14f
100
AcDbEntity
  8
Layer_1
 62
7
100
AcDbLine
 10
24.661066
 20
121.147610
 30
0.0
 11
10.588013
 21
121.147610
 31
0.0
  0
LINE
  5
150
100
AcDbEntity
  8
Layer_1
 62
7
100
AcDbLine
 10
10.588013
 20
121.147610
 30
0.0
 11
10.588013
 21
135.220653
 31
0.0
  0
LINE
  5
151
100
AcDbEntity
  8
Layer_1
 62
7
100
AcDbLine
 10
32.083312
 20
135.069913
 30
0.0
 11
46.156377
 21
135.069913
 31
0.0
  0
LINE
  5
152
100
AcDbEntity
  8
Layer_1
 62
7
100
AcDbLine
 10
46.156377
 20
135.069913
 30
0.0
 11
46.156377
 21
120.996859
 31
0.0
  0
LINE
  5
153
100
AcDbEntity
  8
Layer_1
 62
7
100
AcDbLine
 10
46.156377
 20
120.996859
 30
0.0
 11
32.083312
 21
120.996859
 31
0.0
  0
LINE
  5
154
100
AcDbEntity
  8
Layer_1
 62
7
100
AcDbLine
 10
32.083312
 20
120.996859
 30
0.0
 11
32.083312
 21
135.069913
 31
0.0
  0
LINE
  5
155
100
AcDbEntity
  8
Layer_1
 62
7
100
AcDbLine
 10
51.184377
 20
135.069913
 30
0.0
 11
65.266279
 21
135.069913
 31
0.0
  0
LINE
  5
156
100
AcDbEntity
  8
Layer_1
 62
7
100
AcDbLine
 10
65.266279
 20
135.069913
 30
0.0
 11
65.266279
 21
120.996859
 31
0.0
  0
LINE
  5
157
100
AcDbEntity
  8
Layer_1
 62
7
100
AcDbLine
 10
65.266279
 20
120.996859
 30
0.0
 11
51.184377
 21
120.996859
 31
0.0
  0
LINE
  5
158
100
AcDbEntity
  8
Layer_1
 62
7
100
AcDbLine
 10
51.184377
 20
120.996859
 30
0.0
 11
51.184377
 21
135.069913
 31
0.0
  0
SPLINE
  5
159
100
AcDbEntity
  8
Layer_1
 62
7
100
AcDbSpline
 70
8
 71
3
 72
8
 73
4
 74
0
 40
0
 40
0
 40
0
 40
0
 40
1
 40
1
 40
1
 40
1
 10
160.505388
 20
131.026243
 30
0.0
 10
161.581827
 20
131.026243
 30
0.0
 10
162.456196
 20
130.151810
 30
0.0
 10
162.456282
 20
129.075350
 30
0.0
  0
SPLINE
  5
15a
100
AcDbEntity
  8
Layer_1
 62
7
100
AcDbSpline
 70
8
 71
3
 72
8
 73
4
 74
0
 40
0
 40
0
 40
0
 40
0
 40
1
 40
1
 40
1
 40
1
 10
162.456282
 20
129.075350
 30
0.0
 10
162.456282
 20
127.998878
 30
0.0
 10
161.581827
 20
127.133368
 30
0.0
 10
160.505388
 20
127.133315
 30
0.0
  0
SPLINE
  5
15b
100
AcDbEntity
  8
Layer_1
 62
7
100
AcDbSpline
 70
8
 71
3
 72
8
 73
4
 74
0
 40
0
 40
0
 40
0
 40
0
 40
1
 40
1
 40
1
 40
1
 10
160.505388
 20
127.133315
 30
0.0
 10
159.428895
 20
127.133315
 30
0.0
 10
158.554408
 20
127.998878
 30
0.0
 10
158.554494
 20
129.075350
 30
0.0
  0
SPLINE
  5
15c
100
AcDbEntity
  8
Layer_1
 62
7
100
AcDbSpline
 70
8
 71
3
 72
8
 73
4
 74
0
 40
0
 40
0
 40
0
 40
0
 40
1
 40
1
 40
1
 40
1
 10
158.554494
 20
129.075350
 30
0.0
 10
158.554494
 20
130.151810
 30
0.0
 10
159.428841
 20
131.026243
 30
0.0
 10
160.505388
 20
131.026243
 30
0.0
  0
LINE
  5
15d
100
AcDbEntity
  8
Layer_1
 62
7
100
AcDbLine
 10
160.505388
 20
131.026243
 30
0.0
 11
160.505388
 21
131.026243
 31
0.0
  0
LINE
  5
15e
100
AcDbEntity
  8
Layer_1
 62
7
100
AcDbLine
 10
89.395280
 20
123.000971
 30
0.0
 11
103.468333
 21
123.000971
 31
0.0
  0
LINE
  5
15f
100
AcDbEntity
  8
Layer_1
 62
7
100
AcDbLine
 10
103.468333
 20
123.000971
 30
0.0
 11
103.468333
 21
108.927918
 31
0.0
  0
LINE
  5
160
100
AcDbEntity
  8
Layer_1
 62
7
100
AcDbLine
 10
103.468333
 20
108.927918
 30
0.0
 11
89.395280
 21
108.927918
 31
0.0
  0
LINE
  5
161
100
AcDbEntity
  8
Layer_1
 62
7
100
AcDbLine
 10
89.395280
 20
108.927918
 30
0.0
 11
89.395280
 21
123.000971
 31
0.0
  0
LINE
  5
162
100
AcDbEntity
  8
Layer_1
 62
7
100
AcDbLine
 10
70.294260
 20
120.996859
 30
0.0
 11
84.367278
 21
120.996859
 31
0.0
  0
LINE
  5
163
100
AcDbEntity
  8
Layer_1
 62
7
100
AcDbLine
 10
84.367278
 20
120.996859
 30
0.0
 11
84.367278
 21
106.914958
 31
0.0
  0
LINE
  5
164
100
AcDbEntity
  8
Layer_1
 62
7
100
AcDbLine
 10
84.367278
 20
106.914958
 30
0.0
 11
70.294260
 21
106.914958
 31
0.0
  0
LINE
  5
165
100
AcDbEntity
  8
Layer_1
 62
7
100
AcDbLine
 10
70.294260
 20
106.914958
 30
0.0
 11
70.294260
 21
120.996859
 31
0.0
  0
LINE
  5
166
100
AcDbEntity
  8
Layer_1
 62
7
100
AcDbLine
 10
108.496313
 20
120.996859
 30
0.0
 11
122.578214
 21
120.996859
 31
0.0
  0
LINE
  5
167
100
AcDbEntity
  8
Layer_1
 62
7
100
AcDbLine
 10
122.578214
 20
120.996859
 30
0.0
 11
122.578214
 21
106.914958
 31
0.0
  0
LINE
  5
168
100
AcDbEntity
  8
Layer_1
 62
7
100
AcDbLine
 10
122.578214
 20
106.914958
 30
0.0
 11
108.496313
 21
106.914958
 31
0.0
  0
LINE
  5
169
100
AcDbEntity
  8
Layer_1
 62
7
100
AcDbLine
 10
108.496313
 20
106.914958
 30
0.0
 11
108.496313
 21
120.996859
 31
0.0
  0
LINE
  5
16a
100
AcDbEntity
  8
Layer_1
 62
7
100
AcDbLine
 10
127.606195
 20
118.478429
 30
0.0
 11
141.679248
 21
118.478429
 31
0.0
  0
LINE
  5
16b
100
AcDbEntity
  8
Layer_1
 62
7
100
AcDbLine
 10
141.679248
 20
118.478429
 30
0.0
 11
141.679248
 21
104.405387
 31
0.0
  0
LINE
  5
16c
100
AcDbEntity
  8
Layer_1
 62
7
100
AcDbLine
 10
141.679248
 20
104.405387
 30
0.0
 11
127.606195
 21
104.405387
 31
0.0
  0
LINE
  5
16d
100
AcDbEntity
  8
Layer_1
 62
7
100
AcDbLine
 10
127.606195
 20
104.405387
 30
0.0
 11
127.606195
 21
118.478429
 31
0.0
  0
LINE
  5
16e
100
AcDbEntity
  8
Layer_1
 62
7
100
AcDbLine
 10
10.588013
 20
116.066423
 30
0.0
 11
24.661066
 21
116.066423
 31
0.0
  0
LINE
  5
16f
100
AcDbEntity
  8
Layer_1
 62
7
100
AcDbLine
 10
24.661066
 20
116.066423
 30
0.0
 11
24.661066
 21
101.993381
 31
0.0
  0
LINE
  5
170
100
AcDbEntity
  8
Layer_1
 62
7
100
AcDbLine
 10
24.661066
 20
101.993381
 30
0.0
 11
10.588013
 21
101.993381
 31
0.0
  0
LINE
  5
171
100
AcDbEntity
  8
Layer_1
 62
7
100
AcDbLine
 10
10.588013
 20
101.993381
 30
0.0
 11
10.588013
 21
116.066423
 31
0.0
  0
LINE
  5
172
100
AcDbEntity
  8
Layer_1
 62
7
100
AcDbLine
 10
32.083312
 20
115.968933
 30
0.0
 11
46.156377
 21
115.968933
 31
0.0
  0
LINE
  5
173
100
AcDbEntity
  8
Layer_1
 62
7
100
AcDbLine
 10
46.156377
 20
115.968933
 30
0.0
 11
46.156377
 21
101.887031
 31
0.0
  0
LINE
  5
174
100
AcDbEntity
  8
Layer_1
 62
7
100
AcDbLine
 10
46.156377
 20
101.887031
 30
0.0
 11
32.083312
 21
101.887031
 31
0.0
  0
LINE
  5
175
100
AcDbEntity
  8
Layer_1
 62
7
100
AcDbLine
 10
32.083312
 20
101.887031
 30
0.0
 11
32.083312
 21
115.968933
 31
0.0
  0
LINE
  5
176
100
AcDbEntity
  8
Layer_1
 62
7
100
AcDbLine
 10
51.184377
 20
115.968933
 30
0.0
 11
65.266279
 21
115.968933
 31
0.0
  0
LINE
  5
177
100
AcDbEntity
  8
Layer_1
 62
7
100
AcDbLine
 10
65.266279
 20
115.968933
 30
0.0
 11
65.266279
 21
101.887031
 31
0.0
  0
LINE
  5
178
100
AcDbEntity
  8
Layer_1
 62
7
100
AcDbLine
 10
65.266279
 20
101.887031
 30
0.0
 11
51.184377
 21
101.887031
 31
0.0
  0
LINE
  5
179
100
AcDbEntity
  8
Layer_1
 62
7
100
AcDbLine
 10
51.184377
 20
101.887031
 30
0.0
 11
51.184377
 21
115.968933
 31
0.0
  0
SPLINE
  5
17a
100
AcDbEntity
  8
Layer_1
 62
7
100
AcDbSpline
 70
8
 71
3
 72
8
 73
4
 74
0
 40
0
 40
0
 40
0
 40
0
 40
1
 40
1
 40
1
 40
1
 10
4.682146
 20
112.031667
 30
0.0
 10
5.758585
 20
112.031667
 30
0.0
 10
6.633040
 20
111.157255
 30
0.0
 10
6.633040
 20
110.080773
 30
0.0
  0
SPLINE
  5
17b
100
AcDbEntity
  8
Layer_1
 62
7
100
AcDbSpline
 70
8
 71
3
 72
8
 73
4
 74
0
 40
0
 40
0
 40
0
 40
0
 40
1
 40
1
 40
1
 40
1
 10
6.633040
 20
110.080773
 30
0.0
 10
6.633040
 20
109.004301
 30
0.0
 10
5.758585
 20
108.129879
 30
0.0
 10
4.682146
 20
108.129879
 30
0.0
  0
SPLINE
  5
17c
100
AcDbEntity
  8
Layer_1
 62
7
100
AcDbSpline
 70
8
 71
3
 72
8
 73
4
 74
0
 40
0
 40
0
 40
0
 40
0
 40
1
 40
1
 40
1
 40
1
 10
4.682146
 20
108.129879
 30
0.0
 10
3.605653
 20
108.129879
 30
0.0
 10
2.740111
 20
109.004301
 30
0.0
 10
2.740111
 20
110.080773
 30
0.0
  0
SPLINE
  5
17d
100
AcDbEntity
  8
Layer_1
 62
7
100
AcDbSpline
 70
8
 71
3
 72
8
 73
4
 74
0
 40
0
 40
0
 40
0
 40
0
 40
1
 40
1
 40
1
 40
1
 10
2.740111
 20
110.080773
 30
0.0
 10
2.740111
 20
111.157255
 30
0.0
 10
3.605653
 20
112.031667
 30
0.0
 10
4.682146
 20
112.031667
 30
0.0
  0
LINE
  5
17e
100
AcDbEntity
  8
Layer_1
 62
7
100
AcDbLine
 10
4.682146
 20
112.031667
 30
0.0
 11
4.682146
 21
112.031667
 31
0.0
  0
LINE
  5
17f
100
AcDbEntity
  8
Layer_1
 62
7
100
AcDbLine
 10
89.395280
 20
103.899991
 30
0.0
 11
103.468333
 21
103.899991
 31
0.0
  0
LINE
  5
180
100
AcDbEntity
  8
Layer_1
 62
7
100
AcDbLine
 10
103.468333
 20
103.899991
 30
0.0
 11
103.468333
 21
89.826949
 31
0.0
  0
LINE
  5
181
100
AcDbEntity
  8
Layer_1
 62
7
100
AcDbLine
 10
103.468333
 20
89.826949
 30
0.0
 11
89.395280
 21
89.826949
 31
0.0
  0
LINE
  5
182
100
AcDbEntity
  8
Layer_1
 62
7
100
AcDbLine
 10
89.395280
 20
89.826949
 30
0.0
 11
89.395280
 21
103.899991
 31
0.0
  0
LINE
  5
183
100
AcDbEntity
  8
Layer_1
 62
7
100
AcDbLine
 10
70.294260
 20
101.887031
 30
0.0
 11
84.367278
 21
101.887031
 31
0.0
  0
LINE
  5
184
100
AcDbEntity
  8
Layer_1
 62
7
100
AcDbLine
 10
84.367278
 20
101.887031
 30
0.0
 11
84.367278
 21
87.813978
 31
0.0
  0
LINE
  5
185
100
AcDbEntity
  8
Layer_1
 62
7
100
AcDbLine
 10
84.367278
 20
87.813978
 30
0.0
 11
70.294260
 21
87.813978
 31
0.0
  0
LINE
  5
186
100
AcDbEntity
  8
Layer_1
 62
7
100
AcDbLine
 10
70.294260
 20
87.813978
 30
0.0
 11
70.294260
 21
101.887031
 31
0.0
  0
LINE
  5
187
100
AcDbEntity
  8
Layer_1
 62
7
100
AcDbLine
 10
108.496313
 20
101.887031
 30
0.0
 11
122.578214
 21
101.887031
 31
0.0
  0
LINE
  5
188
100
AcDbEntity
  8
Layer_1
 62
7
100
AcDbLine
 10
122.578214
 20
101.887031
 30
0.0
 11
122.578214
 21
87.813978
 31
0.0
  0
LINE
  5
189
100
AcDbEntity
  8
Layer_1
 62
7
100
AcDbLine
 10
122.578214
 20
87.813978
 30
0.0
 11
108.496313
 21
87.813978
 31
0.0
  0
LINE
  5
18a
100
AcDbEntity
  8
Layer_1
 62
7
100
AcDbLine
 10
108.496313
 20
87.813978
 30
0.0
 11
108.496313
 21
101.887031
 31
0.0
  0
LINE
  5
18b
100
AcDbEntity
  8
Layer_1
 62
7
100
AcDbLine
 10
127.606195
 20
99.377460
 30
0.0
 11
141.679248
 21
99.377460
 31
0.0
  0
LINE
  5
18c
100
AcDbEntity
  8
Layer_1
 62
7
100
AcDbLine
 10
141.679248
 20
99.377460
 30
0.0
 11
141.679248
 21
85.304418
 31
0.0
  0
LINE
  5
18d
100
AcDbEntity
  8
Layer_1
 62
7
100
AcDbLine
 10
141.679248
 20
85.304418
 30
0.0
 11
127.606195
 21
85.304418
 31
0.0
  0
LINE
  5
18e
100
AcDbEntity
  8
Layer_1
 62
7
100
AcDbLine
 10
127.606195
 20
85.304418
 30
0.0
 11
127.606195
 21
99.377460
 31
0.0
  0
SPLINE
  5
18f
100
AcDbEntity
  8
Layer_1
 62
7
100
AcDbSpline
 70
8
 71
3
 72
8
 73
4
 74
0
 40
0
 40
0
 40
0
 40
0
 40
1
 40
1
 40
1
 40
1
 10
152.462376
 20
97.444305
 30
0.0
 10
153.538837
 20
97.444305
 30
0.0
 10
154.404411
 20
96.578742
 30
0.0
 10
154.404411
 20
95.502270
 30
0.0
  0
SPLINE
  5
190
100
AcDbEntity
  8
Layer_1
 62
7
100
AcDbSpline
 70
8
 71
3
 72
8
 73
4
 74
0
 40
0
 40
0
 40
0
 40
0
 40
1
 40
1
 40
1
 40
1
 10
154.404411
 20
95.502270
 30
0.0
 10
154.404411
 20
94.425810
 30
0.0
 10
153.538837
 20
93.551377
 30
0.0
 10
152.462376
 20
93.551377
 30
0.0
  0
SPLINE
  5
191
100
AcDbEntity
  8
Layer_1
 62
7
100
AcDbSpline
 70
8
 71
3
 72
8
 73
4
 74
0
 40
0
 40
0
 40
0
 40
0
 40
1
 40
1
 40
1
 40
1
 10
152.462376
 20
93.551377
 30
0.0
 10
151.385905
 20
93.551377
 30
0.0
 10
150.511482
 20
94.425810
 30
0.0
 10
150.511482
 20
95.502270
 30
0.0
  0
SPLINE
  5
192
100
AcDbEntity
  8
Layer_1
 62
7
100
AcDbSpline
 70
8
 71
3
 72
8
 73
4
 74
0
 40
0
 40
0
 40
0
 40
0
 40
1
 40
1
 40
1
 40
1
 10
150.511482
 20
95.502270
 30
0.0
 10
150.511482
 20
96.578742
 30
0.0
 10
151.385905
 20
97.444305
 30
0.0
 10
152.462376
 20
97.444305
 30
0.0
  0
LINE
  5
193
100
AcDbEntity
  8
Layer_1
 62
7
100
AcDbLine
 10
152.462376
 20
97.444305
 30
0.0
 11
152.462376
 21
97.444305
 31
0.0
  0
LINE
  5
194
100
AcDbEntity
  8
Layer_1
 62
7
100
AcDbLine
 10
8.193756
 20
96.912237
 30
0.0
 11
22.266789
 21
96.912237
 31
0.0
  0
LINE
  5
195
100
AcDbEntity
  8
Layer_1
 62
7
100
AcDbLine
 10
22.266789
 20
96.912237
 30
0.0
 11
22.266789
 21
82.839194
 31
0.0
  0
LINE
  5
196
100
AcDbEntity
  8
Layer_1
 62
7
100
AcDbLine
 10
22.266789
 20
82.839194
 30
0.0
 11
8.193756
 21
82.839194
 31
0.0
  0
LINE
  5
197
100
AcDbEntity
  8
Layer_1
 62
7
100
AcDbLine
 10
8.193756
 20
82.839194
 30
0.0
 11
8.193756
 21
96.912237
 31
0.0
  0
LINE
  5
198
100
AcDbEntity
  8
Layer_1
 62
7
100
AcDbLine
 10
32.083312
 20
96.867942
 30
0.0
 11
46.156377
 21
96.867942
 31
0.0
  0
LINE
  5
199
100
AcDbEntity
  8
Layer_1
 62
7
100
AcDbLine
 10
46.156377
 20
96.867942
 30
0.0
 11
46.156377
 21
82.786030
 31
0.0
  0
LINE
  5
19a
100
AcDbEntity
  8
Layer_1
 62
7
100
AcDbLine
 10
46.156377
 20
82.786030
 30
0.0
 11
32.083312
 21
82.786030
 31
0.0
  0
LINE
  5
19b
100
AcDbEntity
  8
Layer_1
 62
7
100
AcDbLine
 10
32.083312
 20
82.786030
 30
0.0
 11
32.083312
 21
96.867942
 31
0.0
  0
LINE
  5
19c
100
AcDbEntity
  8
Layer_1
 62
7
100
AcDbLine
 10
51.184377
 20
96.867942
 30
0.0
 11
65.266279
 21
96.867942
 31
0.0
  0
LINE
  5
19d
100
AcDbEntity
  8
Layer_1
 62
7
100
AcDbLine
 10
65.266279
 20
96.867942
 30
0.0
 11
65.266279
 21
82.786030
 31
0.0
  0
LINE
  5
19e
100
AcDbEntity
  8
Layer_1
 62
7
100
AcDbLine
 10
65.266279
 20
82.786030
 30
0.0
 11
51.184377
 21
82.786030
 31
0.0
  0
LINE
  5
19f
100
AcDbEntity
  8
Layer_1
 62
7
100
AcDbLine
 10
51.184377
 20
82.786030
 30
0.0
 11
51.184377
 21
96.867942
 31
0.0
  0
SPLINE
  5
1a0
100
AcDbEntity
  8
Layer_1
 62
7
100
AcDbSpline
 70
8
 71
3
 72
8
 73
4
 74
0
 40
0
 40
0
 40
0
 40
0
 40
1
 40
1
 40
1
 40
1
 10
118.463610
 20
83.078673
 30
0.0
 10
119.540070
 20
83.078673
 30
0.0
 10
120.414504
 20
82.204240
 30
0.0
 10
120.414504
 20
81.127780
 30
0.0
  0
SPLINE
  5
1a1
100
AcDbEntity
  8
Layer_1
 62
7
100
AcDbSpline
 70
8
 71
3
 72
8
 73
4
 74
0
 40
0
 40
0
 40
0
 40
0
 40
1
 40
1
 40
1
 40
1
 10
120.414504
 20
81.127780
 30
0.0
 10
120.414504
 20
80.051308
 30
0.0
 10
119.540070
 20
79.176886
 30
0.0
 10
118.463610
 20
79.176886
 30
0.0
  0
SPLINE
  5
1a2
100
AcDbEntity
  8
Layer_1
 62
7
100
AcDbSpline
 70
8
 71
3
 72
8
 73
4
 74
0
 40
0
 40
0
 40
0
 40
0
 40
1
 40
1
 40
1
 40
1
 10
118.463610
 20
79.176886
 30
0.0
 10
117.387138
 20
79.176886
 30
0.0
 10
116.512716
 20
80.051308
 30
0.0
 10
116.512716
 20
81.127780
 30
0.0
  0
SPLINE
  5
1a3
100
AcDbEntity
  8
Layer_1
 62
7
100
AcDbSpline
 70
8
 71
3
 72
8
 73
4
 74
0
 40
0
 40
0
 40
0
 40
0
 40
1
 40
1
 40
1
 40
1
 10
116.512716
 20
81.127780
 30
0.0
 10
116.512716
 20
82.204240
 30
0.0
 10
117.387138
 20
83.078673
 30
0.0
 10
118.463610
 20
83.078673
 30
0.0
  0
LINE
  5
1a4
100
AcDbEntity
  8
Layer_1
 62
7
100
AcDbLine
 10
118.463610
 20
83.078673
 30
0.0
 11
118.463610
 21
83.078673
 31
0.0
  0
LINE
  5
1a5
100
AcDbEntity
  8
Layer_1
 62
7
100
AcDbLine
 10
10.588013
 20
77.758050
 30
0.0
 11
24.661066
 21
77.758050
 31
0.0
  0
LINE
  5
1a6
100
AcDbEntity
  8
Layer_1
 62
7
100
AcDbLine
 10
24.661066
 20
77.758050
 30
0.0
 11
24.661066
 21
63.685008
 31
0.0
  0
LINE
  5
1a7
100
AcDbEntity
  8
Layer_1
 62
7
100
AcDbLine
 10
24.661066
 20
63.685008
 30
0.0
 11
10.588013
 21
63.685008
 31
0.0
  0
LINE
  5
1a8
100
AcDbEntity
  8
Layer_1
 62
7
100
AcDbLine
 10
10.588013
 20
63.685008
 30
0.0
 11
10.588013
 21
77.758050
 31
0.0
  0
LINE
  5
1a9
100
AcDbEntity
  8
Layer_1
 62
7
100
AcDbLine
 10
32.083312
 20
77.758050
 30
0.0
 11
46.156377
 21
77.758050
 31
0.0
  0
LINE
  5
1aa
100
AcDbEntity
  8
Layer_1
 62
7
100
AcDbLine
 10
46.156377
 20
77.758050
 30
0.0
 11
46.156377
 21
63.685008
 31
0.0
  0
LINE
  5
1ab
100
AcDbEntity
  8
Layer_1
 62
7
100
AcDbLine
 10
46.156377
 20
63.685008
 30
0.0
 11
32.083312
 21
63.685008
 31
0.0
  0
LINE
  5
1ac
100
AcDbEntity
  8
Layer_1
 62
7
100
AcDbLine
 10
32.083312
 20
63.685008
 30
0.0
 11
32.083312
 21
77.758050
 31
0.0
  0
LINE
  5
1ad
100
AcDbEntity
  8
Layer_1
 62
7
100
AcDbLine
 10
133.148515
 20
73.226649
 30
0.0
 11
146.379128
 21
68.411486
 31
0.0
  0
LINE
  5
1ae
100
AcDbEntity
  8
Layer_1
 62
7
100
AcDbLine
 10
146.379128
 20
68.411486
 30
0.0
 11
141.563986
 21
55.189753
 31
0.0
  0
LINE
  5
1af
100
AcDbEntity
  8
Layer_1
 62
7
100
AcDbLine
 10
141.563986
 20
55.189753
 30
0.0
 11
128.333373
 21
60.004917
 31
0.0
  0
LINE
  5
1b0
100
AcDbEntity
  8
Layer_1
 62
7
100
AcDbLine
 10
128.333373
 20
60.004917
 30
0.0
 11
133.148515
 21
73.226649
 31
0.0
  0
SPLINE
  5
1b1
100
AcDbEntity
  8
Layer_1
 62
7
100
AcDbSpline
 70
8
 71
3
 72
8
 73
4
 74
0
 40
0
 40
0
 40
0
 40
0
 40
1
 40
1
 40
1
 40
1
 10
4.682146
 20
70.176161
 30
0.0
 10
5.758585
 20
70.176161
 30
0.0
 10
6.633040
 20
69.301738
 30
0.0
 10
6.633040
 20
68.225267
 30
0.0
  0
SPLINE
  5
1b2
100
AcDbEntity
  8
Layer_1
 62
7
100
AcDbSpline
 70
8
 71
3
 72
8
 73
4
 74
0
 40
0
 40
0
 40
0
 40
0
 40
1
 40
1
 40
1
 40
1
 10
6.633040
 20
68.225267
 30
0.0
 10
6.633040
 20
67.148796
 30
0.0
 10
5.758585
 20
66.274373
 30
0.0
 10
4.682146
 20
66.274373
 30
0.0
  0
SPLINE
  5
1b3
100
AcDbEntity
  8
Layer_1
 62
7
100
AcDbSpline
 70
8
 71
3
 72
8
 73
4
 74
0
 40
0
 40
0
 40
0
 40
0
 40
1
 40
1
 40
1
 40
1
 10
4.682146
 20
66.274373
 30
0.0
 10
3.605653
 20
66.274373
 30
0.0
 10
2.740111
 20
67.148796
 30
0.0
 10
2.740111
 20
68.225267
 30
0.0
  0
SPLINE
  5
1b4
100
AcDbEntity
  8
Layer_1
 62
7
100
AcDbSpline
 70
8
 71
3
 72
8
 73
4
 74
0
 40
0
 40
0
 40
0
 40
0
 40
1
 40
1
 40
1
 40
1
 10
2.740111
 20
68.225267
 30
0.0
 10
2.740111
 20
69.301738
 30
0.0
 10
3.605653
 20
70.176161
 30
0.0
 10
4.682146
 20
70.176161
 30
0.0
  0
LINE
  5
1b5
100
AcDbEntity
  8
Layer_1
 62
7
100
AcDbLine
 10
4.682146
 20
70.176161
 30
0.0
 11
4.682146
 21
70.176161
 31
0.0
  0
LINE
  5
1b6
100
AcDbEntity
  8
Layer_1
 62
7
100
AcDbLine
 10
117.780779
 20
53.212251
 30
0.0
 11
112.965626
 21
39.981649
 31
0.0
  0
LINE
  5
1b7
100
AcDbEntity
  8
Layer_1
 62
7
100
AcDbLine
 10
112.965626
 20
39.981649
 30
0.0
 11
99.735025
 21
44.796812
 31
0.0
  0
LINE
  5
1b8
100
AcDbEntity
  8
Layer_1
 62
7
100
AcDbLine
 10
99.735025
 20
44.796812
 30
0.0
 11
104.550167
 21
58.027414
 31
0.0
  0
LINE
  5
1b9
100
AcDbEntity
  8
Layer_1
 62
7
100
AcDbLine
 10
104.550167
 20
58.027414
 30
0.0
 11
117.780779
 21
53.212251
 31
0.0
  0
LINE
  5
1ba
100
AcDbEntity
  8
Layer_1
 62
7
100
AcDbLine
 10
152.737280
 20
63.685008
 30
0.0
 11
165.967893
 21
58.869844
 31
0.0
  0
LINE
  5
1bb
100
AcDbEntity
  8
Layer_1
 62
7
100
AcDbLine
 10
165.967893
 20
58.869844
 30
0.0
 11
161.152719
 21
45.639242
 31
0.0
  0
LINE
  5
1bc
100
AcDbEntity
  8
Layer_1
 62
7
100
AcDbLine
 10
161.152719
 20
45.639242
 30
0.0
 11
147.922106
 21
50.454395
 31
0.0
  0
LINE
  5
1bd
100
AcDbEntity
  8
Layer_1
 62
7
100
AcDbLine
 10
147.922106
 20
50.454395
 30
0.0
 11
152.737280
 21
63.685008
 31
0.0
  0
SPLINE
  5
1be
100
AcDbEntity
  8
Layer_1
 62
7
100
AcDbSpline
 70
8
 71
3
 72
8
 73
4
 74
0
 40
0
 40
0
 40
0
 40
0
 40
1
 40
1
 40
1
 40
1
 10
61.027489
 20
62.709555
 30
0.0
 10
62.103995
 20
62.709555
 30
0.0
 10
62.969536
 20
61.835133
 30
0.0
 10
62.969536
 20
60.758672
 30
0.0
  0
SPLINE
  5
1bf
100
AcDbEntity
  8
Layer_1
 62
7
100
AcDbSpline
 70
8
 71
3
 72
8
 73
4
 74
0
 40
0
 40
0
 40
0
 40
0
 40
1
 40
1
 40
1
 40
1
 10
62.969536
 20
60.758672
 30
0.0
 10
62.969536
 20
59.682201
 30
0.0
 10
62.104014
 20
58.816637
 30
0.0
 10
61.027489
 20
58.816637
 30
0.0
  0
SPLINE
  5
1c0
100
AcDbEntity
  8
Layer_1
 62
7
100
AcDbSpline
 70
8
 71
3
 72
8
 73
4
 74
0
 40
0
 40
0
 40
0
 40
0
 40
1
 40
1
 40
1
 40
1
 10
61.027489
 20
58.816637
 30
0.0
 10
59.951050
 20
58.816637
 30
0.0
 10
59.076683
 20
59.682201
 30
0.0
 10
59.076595
 20
60.758672
 30
0.0
  0
SPLINE
  5
1c1
100
AcDbEntity
  8
Layer_1
 62
7
100
AcDbSpline
 70
8
 71
3
 72
8
 73
4
 74
0
 40
0
 40
0
 40
0
 40
0
 40
1
 40
1
 40
1
 40
1
 10
59.076595
 20
60.758672
 30
0.0
 10
59.076595
 20
61.835133
 30
0.0
 10
59.951050
 20
62.709555
 30
0.0
 10
61.027489
 20
62.709555
 30
0.0
  0
LINE
  5
1c2
100
AcDbEntity
  8
Layer_1
 62
7
100
AcDbLine
 10
61.027489
 20
62.709555
 30
0.0
 11
61.027489
 21
62.709555
 31
0.0
  0
SPLINE
  5
1c3
100
AcDbEntity
  8
Layer_1
 62
7
100
AcDbSpline
 70
8
 71
3
 72
8
 73
4
 74
0
 40
0
 40
0
 40
0
 40
0
 40
1
 40
1
 40
1
 40
1
 10
171.820574
 20
60.847347
 30
0.0
 10
172.897014
 20
60.847347
 30
0.0
 10
173.771382
 20
59.972913
 30
0.0
 10
173.771468
 20
58.896453
 30
0.0
  0
SPLINE
  5
1c4
100
AcDbEntity
  8
Layer_1
 62
7
100
AcDbSpline
 70
8
 71
3
 72
8
 73
4
 74
0
 40
0
 40
0
 40
0
 40
0
 40
1
 40
1
 40
1
 40
1
 10
173.771468
 20
58.896453
 30
0.0
 10
173.771468
 20
57.819981
 30
0.0
 10
172.897014
 20
56.945559
 30
0.0
 10
171.820574
 20
56.945559
 30
0.0
  0
SPLINE
  5
1c5
100
AcDbEntity
  8
Layer_1
 62
7
100
AcDbSpline
 70
8
 71
3
 72
8
 73
4
 74
0
 40
0
 40
0
 40
0
 40
0
 40
1
 40
1
 40
1
 40
1
 10
171.820574
 20
56.945559
 30
0.0
 10
170.744082
 20
56.945559
 30
0.0
 10
169.869509
 20
57.819981
 30
0.0
 10
169.869681
 20
58.896453
 30
0.0
  0
SPLINE
  5
1c6
100
AcDbEntity
  8
Layer_1
 62
7
100
AcDbSpline
 70
8
 71
3
 72
8
 73
4
 74
0
 40
0
 40
0
 40
0
 40
0
 40
1
 40
1
 40
1
 40
1
 10
169.869681
 20
58.896453
 30
0.0
 10
169.869681
 20
59.972913
 30
0.0
 10
170.744028
 20
60.847347
 30
0.0
 10
171.820574
 20
60.847347
 30
0.0
  0
LINE
  5
1c7
100
AcDbEntity
  8
Layer_1
 62
7
100
AcDbLine
 10
171.820574
 20
60.847347
 30
0.0
 11
171.820574
 21
60.847347
 31
0.0
  0
LINE
  5
1c8
100
AcDbEntity
  8
Layer_1
 62
7
100
AcDbLine
 10
136.553713
 20
41.418213
 30
0.0
 11
131.738570
 21
28.187600
 31
0.0
  0
LINE
  5
1c9
100
AcDbEntity
  8
Layer_1
 62
7
100
AcDbLine
 10
131.738570
 20
28.187600
 30
0.0
 11
118.507958
 21
33.002764
 31
0.0
  0
LINE
  5
1ca
100
AcDbEntity
  8
Layer_1
 62
7
100
AcDbLine
 10
118.507958
 20
33.002764
 30
0.0
 11
123.323111
 21
46.233377
 31
0.0
  0
LINE
  5
1cb
100
AcDbEntity
  8
Layer_1
 62
7
100
AcDbLine
 10
123.323111
 20
46.233377
 30
0.0
 11
136.553713
 21
41.418213
 31
0.0
  0
LINE
  5
1cc
100
AcDbEntity
  8
Layer_1
 62
7
100
AcDbLine
 10
156.142477
 20
31.867702
 30
0.0
 11
151.327303
 21
18.645959
 31
0.0
  0
LINE
  5
1cd
100
AcDbEntity
  8
Layer_1
 62
7
100
AcDbLine
 10
151.327303
 20
18.645959
 30
0.0
 11
138.096691
 21
23.452253
 31
0.0
  0
LINE
  5
1ce
100
AcDbEntity
  8
Layer_1
 62
7
100
AcDbLine
 10
138.096691
 20
23.452253
 30
0.0
 11
142.911876
 21
36.682855
 31
0.0
  0
LINE
  5
1cf
100
AcDbEntity
  8
Layer_1
 62
7
100
AcDbLine
 10
142.911876
 20
36.682855
 30
0.0
 11
156.142477
 21
31.867702
 31
0.0
  0
SPLINE
  5
1d0
100
AcDbEntity
  8
Layer_1
 62
7
100
AcDbSpline
 70
8
 71
3
 72
8
 73
4
 74
0
 40
0
 40
0
 40
0
 40
0
 40
1
 40
1
 40
1
 40
1
 10
99.903493
 20
26.387458
 30
0.0
 10
100.979986
 20
26.387458
 30
0.0
 10
101.854559
 20
25.521894
 30
0.0
 10
101.854398
 20
24.445433
 30
0.0
  0
SPLINE
  5
1d1
100
AcDbEntity
  8
Layer_1
 62
7
100
AcDbSpline
 70
8
 71
3
 72
8
 73
4
 74
0
 40
0
 40
0
 40
0
 40
0
 40
1
 40
1
 40
1
 40
1
 10
101.854398
 20
24.445433
 30
0.0
 10
101.854398
 20
23.368962
 30
0.0
 10
100.980050
 20
22.494540
 30
0.0
 10
99.903493
 20
22.494540
 30
0.0
  0
SPLINE
  5
1d2
100
AcDbEntity
  8
Layer_1
 62
7
100
AcDbSpline
 70
8
 71
3
 72
8
 73
4
 74
0
 40
0
 40
0
 40
0
 40
0
 40
1
 40
1
 40
1
 40
1
 10
99.903493
 20
22.494540
 30
0.0
 10
98.827054
 20
22.494540
 30
0.0
 10
97.952739
 20
23.368962
 30
0.0
 10
97.952599
 20
24.445433
 30
0.0
  0
SPLINE
  5
1d3
100
AcDbEntity
  8
Layer_1
 62
7
100
AcDbSpline
 70
8
 71
3
 72
8
 73
4
 74
0
 40
0
 40
0
 40
0
 40
0
 40
1
 40
1
 40
1
 40
1
 10
97.952599
 20
24.445433
 30
0.0
 10
97.952599
 20
25.521894
 30
0.0
 10
98.827054
 20
26.387458
 30
0.0
 10
99.903493
 20
26.387458
 30
0.0
  0
LINE
  5
1d4
100
AcDbEntity
  8
Layer_1
 62
7
100
AcDbLine
 10
99.903493
 20
26.387458
 30
0.0
 11
99.903493
 21
26.387458
 31
0.0
  0
SPLINE
  5
1d5
100
AcDbEntity
  8
Layer_1
 62
7
100
AcDbSpline
 70
8
 71
3
 72
8
 73
4
 74
0
 40
0
 40
0
 40
0
 40
0
 40
1
 40
1
 40
1
 40
1
 10
151.548990
 20
8.510172
 30
0.0
 10
152.625482
 20
8.510172
 30
0.0
 10
153.499883
 20
7.635749
 30
0.0
 10
153.499883
 20
6.559278
 30
0.0
  0
SPLINE
  5
1d6
100
AcDbEntity
  8
Layer_1
 62
7
100
AcDbSpline
 70
8
 71
3
 72
8
 73
4
 74
0
 40
0
 40
0
 40
0
 40
0
 40
1
 40
1
 40
1
 40
1
 10
153.499883
 20
6.559278
 30
0.0
 10
153.499883
 20
5.482806
 30
0.0
 10
152.625536
 20
4.617254
 30
0.0
 10
151.548990
 20
4.617254
 30
0.0
  0
SPLINE
  5
1d7
100
AcDbEntity
  8
Layer_1
 62
7
100
AcDbSpline
 70
8
 71
3
 72
8
 73
4
 74
0
 40
0
 40
0
 40
0
 40
0
 40
1
 40
1
 40
1
 40
1
 10
151.548990
 20
4.617254
 30
0.0
 10
150.472540
 20
4.617254
 30
0.0
 10
149.598235
 20
5.482806
 30
0.0
 10
149.598085
 20
6.559278
 30
0.0
  0
SPLINE
  5
1d8
100
AcDbEntity
  8
Layer_1
 62
7
100
AcDbSpline
 70
8
 71
3
 72
8
 73
4
 74
0
 40
0
 40
0
 40
0
 40
0
 40
1
 40
1
 40
1
 40
1
 10
149.598085
 20
6.559278
 30
0.0
 10
149.598085
 20
7.635749
 30
0.0
 10
150.472540
 20
8.510172
 30
0.0
 10
151.548990
 20
8.510172
 30
0.0
  0
LINE
  5
1d9
100
AcDbEntity
  8
Layer_1
 62
7
100
AcDbLine
 10
151.548990
 20
8.510172
 30
0.0
 11
151.548990
 21
8.510172
 31
0.0
  0
ENDSEC
  0
SECTION
  2
OBJECTS
  0
DICTIONARY
  5
C
330
0
100
AcDbDictionary
  3
ACAD_GROUP
350
D
  3
ACAD_MLINESTYLE
350
17
  0
DICTIONARY
  5
D
330
C
100
AcDbDictionary
  0
DICTIONARY
  5
1A
330
C
100
AcDbDictionary
  0
DICTIONARY
  5
17
330
C
100
AcDbDictionary
  3
STANDARD
350
18
  0
DICTIONARY
  5
19
330
C
100
AcDbDictionary
  0
ENDSEC
  0
EOF
