<?xml version="1.0" encoding="UTF-8" standalone="no"?>
<svg
   xmlns:dc="http://purl.org/dc/elements/1.1/"
   xmlns:cc="http://creativecommons.org/ns#"
   xmlns:rdf="http://www.w3.org/1999/02/22-rdf-syntax-ns#"
   xmlns:svg="http://www.w3.org/2000/svg"
   xmlns="http://www.w3.org/2000/svg"
   id="svg787"
   version="1.1"
   viewBox="0 0 177.62187 168.47496"
   height="168.47496mm"
   width="177.62187mm">
  <defs
     id="defs781" />
  <metadata
     id="metadata784">
    <rdf:RDF>
      <cc:Work
         rdf:about="">
        <dc:format>image/svg+xml</dc:format>
        <dc:type
           rdf:resource="http://purl.org/dc/dcmitype/StillImage" />
        <dc:title></dc:title>
      </cc:Work>
    </rdf:RDF>
  </metadata>
  <g
     transform="translate(-17.778349,-66.107755)"
     id="layer1">
    <path
       id="path4773-6-3"
       d="M 84.92077,66.248866 25.927524,74.24812 17.91946,82.247374 v 88.996996 l 8.008064,7.99922 H 84.92077 l 28.16048,35.95688 52.8461,19.23521 10.10711,-2.39007 17.12733,-47.06937 2.09023,-5.73265 -2.8575,-10.09827 -18.46792,-7.78756 v -41.95411 l 7.99926,-7.95512 V 74.24812 h -15.99851 l -7.00259,-7.999254 z m 4.51556,2.672292 c 1.07061,0 1.94027,0.869685 1.94027,1.940295 0,1.07061 -0.86966,1.931406 -1.94027,1.931459 -1.07061,0 -1.93145,-0.860849 -1.93148,-1.931459 0,-1.07061 0.86087,-1.940295 1.93148,-1.940295 z m 64.97286,0 c 1.07058,0 1.94019,0.869685 1.94027,1.940295 0,1.07061 -0.86969,1.931406 -1.94027,1.931459 -1.07064,0 -1.94037,-0.860849 -1.94027,-1.931459 0,-1.07061 0.86958,-1.940295 1.94027,-1.940295 z m -47.72202,5.326962 h 13.99646 v 13.996458 h -13.99646 z m -18.99709,2.002022 h 13.99644 V 90.246574 H 87.69008 Z m 37.99417,0 h 14.00527 v 13.996432 h -14.00527 z m 19.00587,2.495894 H 158.6866 V 92.751305 H 144.69012 Z M 30.690024,81.047911 H 44.686455 V 95.044369 H 30.690024 Z M 49.68708,81.241904 H 63.683539 V 95.247199 H 49.68708 Z m 18.99711,0 H 82.68946 V 95.247199 H 68.68419 Z m -46.249166,2.584132 c 1.070584,0 1.940269,0.869659 1.940269,1.940269 0,1.07061 -0.869685,1.931432 -1.940269,1.931432 -1.070636,0 -1.931484,-0.860822 -1.931484,-1.931432 0,-1.07061 0.860848,-1.940269 1.931484,-1.940269 z m 84.252146,9.419166 h 13.99646 v 14.005268 h -13.99646 z m -18.99709,2.001997 h 13.99644 V 109.24365 H 87.69008 Z m 37.99417,0 h 14.00527 v 13.996451 h -14.00527 z m 19.00587,2.49592 H 158.6866 V 111.74838 H 144.69012 Z M 28.308748,100.09791 h 13.996458 v 13.99645 H 28.308748 Z m 21.378332,0.14991 h 13.996459 v 13.99646 H 49.68708 Z m 18.99711,0 h 14.00527 v 13.99646 H 68.68419 Z m 108.7261,4.02166 c 1.07059,0 1.94019,0.86969 1.9403,1.9403 0,1.07061 -0.86971,1.93141 -1.9403,1.93146 -1.07063,0 -1.94034,-0.86085 -1.94027,-1.93146 0,-1.07061 0.86958,-1.9403 1.94027,-1.9403 z m -70.72312,7.98161 h 13.99646 v 13.99646 h -13.99646 z m -18.99709,1.99319 h 13.99644 v 14.00529 H 87.69008 Z m 37.99417,0 h 14.00527 v 14.00529 h -14.00527 z m 19.00587,2.50473 h 13.99648 v 13.99646 h -13.99648 z m -116.381372,2.3989 h 13.996458 v 13.99646 H 28.308748 Z m 21.378332,0.097 H 63.683539 V 133.2502 H 49.68708 Z m 18.99711,0 H 82.68946 V 133.2502 H 68.68419 Z m -46.249166,3.91582 c 1.070584,0 1.940269,0.86969 1.940269,1.9403 0,1.07061 -0.869685,1.94027 -1.940269,1.94027 -1.070636,0 -1.931484,-0.86966 -1.931484,-1.94027 0,-1.07061 0.860848,-1.9403 1.931484,-1.9403 z m 84.252146,8.08744 h 13.99646 v 13.99647 h -13.99646 z m -18.99709,2.00203 h 13.99644 v 13.99646 H 87.69008 Z m 37.99417,0 h 14.00527 v 13.99646 h -14.00527 z m 19.00587,2.4959 h 13.99648 v 13.99645 h -13.99648 z m 24.72092,1.92264 c 1.07061,0 1.93148,0.86085 1.93148,1.93146 0,1.07061 -0.86087,1.94027 -1.93148,1.94027 -1.07061,0 -1.94027,-0.86966 -1.94027,-1.94027 0,-1.07061 0.86966,-1.93146 1.94027,-1.93146 z m -143.483516,0.52917 h 13.996432 v 13.99646 H 25.927524 Z m 23.759556,0.0441 h 13.996459 v 14.0053 H 49.68708 Z m 18.99711,0 h 14.00527 v 14.0053 H 68.68419 Z m 66.9131,13.71425 c 1.07061,0 1.9403,0.86966 1.9403,1.94027 0,1.07061 -0.86969,1.94027 -1.9403,1.94027 -1.07061,0 -1.94027,-0.86966 -1.94027,-1.94027 0,-1.07061 0.86966,-1.94027 1.94027,-1.94027 z m -107.288542,5.29167 h 13.996458 v 13.99646 H 28.308748 Z m 21.378332,0 h 13.996459 v 13.99646 H 49.68708 Z m 100.51521,4.50673 13.15863,4.78895 -4.78896,13.1498 -13.1586,-4.78896 z m -127.767266,3.0339 c 1.070584,0 1.940269,0.86965 1.940269,1.94026 0,1.07061 -0.869685,1.94027 -1.940269,1.94027 -1.070636,0 -1.931484,-0.86966 -1.931484,-1.94027 0,-1.07061 0.860848,-1.94026 1.931484,-1.94026 z m 112.483156,16.87157 -4.78893,13.15863 -13.15863,-4.78896 4.78896,-13.15863 z m 34.76628,-10.41574 13.15863,4.78895 -4.78899,13.15861 -13.1586,-4.78896 z m -91.21071,0.97012 c 1.07063,0 1.93145,0.86968 1.93145,1.94029 0,1.07061 -0.86079,1.93146 -1.93145,1.93146 -1.070586,0 -1.940192,-0.86085 -1.940298,-1.93146 0,-1.07061 0.869712,-1.94029 1.940298,-1.94029 z m 110.19017,1.85208 c 1.07056,0 1.94019,0.86969 1.94027,1.9403 0,1.07061 -0.86971,1.94027 -1.94027,1.94027 -1.07066,0 -1.94045,-0.86966 -1.94029,-1.94027 0,-1.07061 0.86958,-1.9403 1.94029,-1.9403 z m -35.07496,19.32342 -4.78894,13.1586 -13.1586,-4.78895 4.78893,-13.15861 z m 19.48217,9.49854 -4.78896,13.14979 -13.15863,-4.78014 4.78898,-13.15861 z m -55.93295,5.4504 c 1.07064,0 1.94046,0.86085 1.94027,1.93146 0,1.07061 -0.86958,1.94027 -1.94027,1.94027 -1.07058,0 -1.94013,-0.86966 -1.94027,-1.94027 0,-1.07061 0.86969,-1.93146 1.94027,-1.93146 z m 51.36444,17.77999 c 1.07066,0 1.94029,0.86967 1.94029,1.94028 0,1.07061 -0.86957,1.93146 -1.94029,1.93146 -1.07056,0 -1.94014,-0.86085 -1.94027,-1.93146 0,-1.07061 0.86971,-1.94028 1.94027,-1.94028 z"
       style="fill:none;stroke:#000000;stroke-width:0.28222224px;stroke-linecap:butt;stroke-linejoin:miter;stroke-opacity:1" />
  </g>
</svg>
